<svg width="849" height="732" viewBox="0 0 849 732" fill="none" xmlns="http://www.w3.org/2000/svg">
<path d="M848 731.5C848 731.788 658.154 732 424.019 732C189.884 732 0 731.788 0 731.5C0 731.212 189.808 731 424.019 731C658.23 731 848 731.231 848 731.5Z" fill="#263238"/>
<path d="M786.569 623.755C788.986 624.919 791.146 626.563 792.919 628.589C794.692 630.615 796.041 632.982 796.887 635.548C798.542 640.7 799.013 646.166 798.264 651.53C797.102 661.913 791.254 672.369 784.977 680.658C776.322 673.038 774.247 659.746 773.747 652.938C772.817 642.103 777.592 622.148 786.569 623.755Z" fill="#757575"/>
<path d="M795.01 697.796C794.432 694.839 794.635 691.78 795.599 688.927C796.562 686.074 798.253 683.527 800.5 681.543C802.789 679.598 805.438 678.131 808.293 677.229C811.148 676.327 814.152 676.007 817.131 676.288C818.512 676.272 819.879 676.56 821.139 677.13C822.399 677.701 823.521 678.541 824.428 679.593C825.106 680.708 825.475 681.987 825.497 683.296C825.519 684.604 825.193 685.895 824.553 687.033C823.241 689.294 821.359 691.163 819.098 692.451C811.605 697.2 803.486 700.415 795.01 697.868" fill="#757575"/>
<path d="M783.922 729.543C783.963 728.825 784.065 728.113 784.226 727.412C784.494 725.913 784.852 723.981 785.281 721.652C786.238 715.224 788.225 708.996 791.164 703.214C794.207 697.445 798.72 692.601 804.237 689.182C805.921 688.167 807.723 687.367 809.602 686.798C810.107 686.636 810.62 686.504 811.14 686.401C811.498 686.401 811.694 686.293 811.694 686.401C807.415 687.796 803.455 690.04 800.046 693.001C796.637 695.963 793.849 699.582 791.844 703.647C788.966 709.332 786.94 715.419 785.835 721.706C785.299 724.126 784.87 726.076 784.548 727.412C784.413 728.143 784.204 728.857 783.922 729.543Z" fill="#263238"/>
<path d="M784.244 639.268C784.302 639.578 784.338 639.891 784.351 640.207C784.351 640.893 784.441 641.778 784.512 642.879C784.637 645.191 784.763 648.55 784.906 652.721C785.156 661.028 785.371 672.586 785.317 685.227C785.263 697.868 784.959 709.408 784.619 717.733C784.459 721.886 784.28 725.245 784.137 727.575C784.137 728.658 784.011 729.543 783.958 730.248C783.955 730.558 783.919 730.866 783.851 731.169C783.824 730.856 783.824 730.542 783.851 730.23C783.851 729.543 783.851 728.658 783.851 727.557C783.851 725.137 783.994 721.796 784.083 717.715C784.298 709.408 784.512 697.85 784.566 685.209C784.619 672.568 784.566 661.046 784.369 652.703C784.369 648.622 784.262 645.281 784.208 642.861V640.189C784.194 639.881 784.206 639.573 784.244 639.268Z" fill="#263238"/>
<path d="M780.041 704.044C778.998 697.758 776.487 691.814 772.714 686.704C768.942 681.594 764.017 677.466 758.349 674.663C755.469 673.254 751.678 672.351 749.318 674.518C746.957 676.685 747.529 680.604 748.62 683.548C751.167 689.808 755.49 695.168 761.046 698.953C766.602 702.738 773.142 704.78 779.844 704.821" fill="#757575"/>
<path d="M759.744 684.505C760.365 684.707 760.964 684.974 761.532 685.299C762.244 685.632 762.937 686.006 763.607 686.419C764.516 686.933 765.4 687.494 766.253 688.098C767.3 688.809 768.309 689.575 769.275 690.392C770.398 691.317 771.472 692.299 772.494 693.336C774.815 695.739 776.861 698.398 778.593 701.263C780.278 704.162 781.628 707.246 782.616 710.455C783.033 711.856 783.373 713.279 783.636 714.717C783.874 715.971 784.047 717.237 784.154 718.509C784.259 719.553 784.307 720.602 784.297 721.652C784.346 722.439 784.346 723.23 784.297 724.017C784.291 724.697 784.22 725.374 784.083 726.04C783.904 726.04 784.208 723.151 783.707 718.564C783.569 717.314 783.366 716.072 783.099 714.844C782.821 713.433 782.463 712.041 782.026 710.672C781.026 707.522 779.683 704.493 778.02 701.643C776.322 698.82 774.325 696.193 772.065 693.805C771.072 692.771 770.028 691.788 768.936 690.861C768.008 690.025 767.035 689.242 766.021 688.514C762.283 685.841 759.744 684.649 759.744 684.505Z" fill="#263238"/>
<path d="M659.884 335.194C659.884 335.194 576.387 275.438 565.818 269.569C555.75 263.97 523.793 259.907 520.931 259.203L463.705 246.562L376.292 249.198L351.256 264.422L287.806 294.002C270.513 302.046 256.883 316.411 249.661 334.201L209.603 433L309.087 462.689L312.181 566.906L288.736 731.096H579.66L565.013 416.422L595.308 423.158L659.884 335.194Z" fill="#0039CE"/>
<path d="M310.875 420.72C310.875 420.72 309.82 421.497 307.8 422.689C304.952 424.435 301.792 425.601 298.5 426.12C293.57 426.469 288.624 425.742 283.997 423.989C278.292 422.071 272.763 419.654 267.473 416.766C261.804 413.786 256.493 410.77 251.521 408.35C247.137 406.139 242.579 404.297 237.894 402.842C234.73 401.882 231.486 401.217 228.202 400.856C227.039 400.729 226.145 400.675 225.519 400.657H224.589C225.783 400.614 226.978 400.656 228.166 400.784C231.466 401.055 234.731 401.66 237.912 402.589C242.623 403.998 247.206 405.81 251.611 408.007C256.618 410.427 261.929 413.425 267.598 416.422C272.872 419.292 278.376 421.708 284.051 423.646C288.614 425.385 293.489 426.13 298.357 425.831C301.62 425.348 304.76 424.232 307.603 422.544C308.622 421.966 309.391 421.497 309.928 421.172C310.464 420.847 310.875 420.72 310.875 420.72Z" fill="white"/>
<path d="M306.619 372.034H305.958L304.062 371.944C302.417 371.853 300.038 371.673 297.105 371.384C281.829 369.831 266.807 366.336 252.398 360.982C249.626 359.953 247.408 359.068 245.888 358.418L244.1 357.659L243.492 357.37L244.135 357.587L245.924 358.273C247.462 358.887 249.697 359.736 252.469 360.729C266.917 365.949 281.923 369.434 297.177 371.113C300.092 371.438 302.542 371.673 304.098 371.799L305.993 371.962L306.619 372.034Z" fill="white"/>
<path d="M369.157 269.569C369.157 269.569 368.406 270.797 366.832 272.855C364.588 275.746 362.013 278.359 359.16 280.639C354.888 283.98 350.235 286.793 345.301 289.018C339.263 291.745 333.042 294.038 326.684 295.88C319.942 297.903 313.504 299.691 307.728 301.605C302.592 303.246 297.583 305.269 292.742 307.655C289.48 309.259 286.357 311.138 283.407 313.271C282.334 313.993 281.619 314.661 281.046 315.077C280.474 315.492 280.206 315.691 280.206 315.691C280.206 315.691 281.261 314.715 283.317 313.144C286.25 310.967 289.361 309.046 292.617 307.402C297.461 304.99 302.477 302.943 307.621 301.28C313.397 299.329 319.853 297.542 326.577 295.519C332.919 293.686 339.127 291.411 345.158 288.711C350.072 286.502 354.717 283.727 358.999 280.44C361.883 278.209 364.505 275.652 366.814 272.819C367.655 271.844 368.173 271.013 368.602 270.453C369.032 269.894 369.157 269.569 369.157 269.569Z" fill="white"/>
<path d="M548.078 283.022C548.078 283.022 547.81 282.896 547.309 282.607C546.809 282.318 546.129 281.885 545.163 281.397C542.502 279.963 539.726 278.755 536.866 277.785C532.612 276.344 528.261 275.215 523.847 274.408C518.875 273.451 513.349 272.711 507.555 271.88L477.905 267.636L468.963 266.3L466.513 265.921L465.673 265.758L466.531 265.849L468.981 266.156L477.923 267.365L507.591 271.501C513.385 272.314 518.911 273.072 523.9 274.047C528.321 274.868 532.673 276.027 536.919 277.515C539.79 278.516 542.567 279.773 545.217 281.271C547.113 282.336 548.078 283.022 548.078 283.022Z" fill="white"/>
<path d="M507.591 302.959C507.591 302.959 506.929 303.284 505.659 303.844C504.39 304.404 502.494 305.217 500.044 306.21C495.126 308.178 487.955 310.905 478.87 313.578C468.24 316.76 457.4 319.174 446.43 320.801C434.037 322.716 420.213 322.716 405.817 322.228C391.421 321.74 377.634 321.126 365.151 321.921C354.094 322.462 343.156 324.478 332.622 327.916C325.525 330.274 318.785 333.61 312.592 337.831C310.464 339.384 308.801 340.612 307.764 341.551C306.727 342.49 306.119 342.905 306.119 342.905C306.119 342.905 306.655 342.4 307.71 341.497C308.765 340.594 310.375 339.293 312.521 337.704C318.69 333.423 325.427 330.043 332.532 327.664C343.084 324.184 354.047 322.138 365.133 321.578C377.651 320.765 391.404 321.379 405.817 321.849C420.231 322.318 434.019 322.354 446.394 320.458C457.351 318.826 468.18 316.412 478.799 313.235C487.865 310.598 495.055 307.907 499.99 306.011C502.458 305.036 504.354 304.205 505.623 303.7L507.591 302.959Z" fill="white"/>
<path d="M534.988 320.621C534.89 320.693 534.781 320.748 534.666 320.783L533.718 321.126C532.895 321.433 531.697 321.831 530.141 322.264C526.224 323.393 522.178 324 518.106 324.07C514.028 324.074 509.971 323.465 506.07 322.264C504.568 321.813 503.37 321.397 502.494 321.072L501.564 320.693L501.242 320.53H501.6L502.547 320.837C503.37 321.126 504.568 321.506 506.124 321.921C510.019 323.017 514.045 323.564 518.088 323.546C522.139 323.429 526.161 322.822 530.07 321.74C531.554 321.325 532.77 320.982 533.646 320.711L534.594 320.44L534.988 320.621Z" fill="white"/>
<path d="M478.566 371.727C478.566 371.727 469.982 373.533 455.979 375.664C448.969 376.729 440.6 377.777 431.283 378.716C421.965 379.655 411.611 380.359 400.881 380.775C390.151 381.19 379.779 381.154 370.48 380.955C361.18 380.756 352.597 380.251 345.622 379.709C331.494 378.625 322.821 377.434 322.821 377.434L324.395 377.56L328.937 378.011C332.871 378.427 338.576 378.933 345.64 379.438C352.704 379.944 361.127 380.359 370.48 380.594C379.833 380.829 390.151 380.774 400.881 380.395C411.611 380.016 421.93 379.239 431.283 378.373C440.635 377.506 448.969 376.422 455.979 375.393C462.989 374.364 468.64 373.461 472.539 372.756L477.028 371.962L478.566 371.727Z" fill="white"/>
<path d="M548.596 366.598H547.953H546.164C544.537 366.598 542.194 366.598 539.297 366.598C533.503 366.598 525.491 366.364 516.693 365.605C507.894 364.847 499.936 363.637 494.249 362.589C491.388 362.084 489.099 361.614 487.507 361.271L485.719 360.874L485.093 360.711H485.737L487.525 361.036L494.267 362.246C499.972 363.221 507.894 364.377 516.693 365.136C525.491 365.894 533.503 366.147 539.279 366.237H546.146H547.935L548.596 366.598Z" fill="white"/>
<path d="M459.305 441.037C459.305 441.037 458.787 441.145 457.839 441.271L453.619 441.867C451.83 442.138 449.541 442.445 446.912 442.626C444.284 442.806 441.315 443.167 437.971 443.222C434.627 443.276 431.05 443.529 427.241 443.456C425.292 443.456 423.289 443.456 421.214 443.456L414.83 443.24C406.085 442.897 396.5 442.228 386.449 441.434C376.399 440.639 366.778 439.628 358.105 439.104C349.431 438.581 341.527 438.183 334.856 438.292H330.153L325.951 438.508C323.34 438.617 321.068 438.743 319.244 438.978L315.006 439.393L313.522 439.52C313.522 439.52 314.04 439.429 315.006 439.321L319.226 438.815C321.015 438.563 323.322 438.436 325.951 438.292L330.153 438.057H334.856C341.473 437.93 349.36 438.255 358.105 438.797C366.849 439.339 376.399 440.242 386.449 441.091C396.5 441.94 406.121 442.644 414.812 443.023L421.178 443.258C423.253 443.258 425.256 443.258 427.205 443.258C431.086 443.258 434.698 443.168 437.935 443.077C441.172 442.987 444.212 442.68 446.877 442.517C449.541 442.355 451.741 442.084 453.583 441.831L457.803 441.307L459.305 441.037Z" fill="white"/>
<path d="M564.548 419.836L563.761 419.962L561.472 420.197C559.505 420.413 556.626 420.648 553.085 420.901C545.932 421.389 536.15 421.732 525.295 421.461C514.44 421.19 504.622 420.287 497.558 419.42C493.981 418.987 491.174 418.59 489.206 418.283L486.953 417.921L486.166 417.759L486.953 417.849L489.224 418.138C491.191 418.409 494.053 418.77 497.594 419.167C504.658 419.962 514.44 420.793 525.295 421.082C536.15 421.371 545.968 421.082 553.067 420.63C556.644 420.431 559.487 420.215 561.472 420.052L563.744 419.872L564.548 419.836Z" fill="white"/>
<path d="M565.818 485.461L563.207 485.317C561.418 485.317 558.968 484.955 555.714 484.865C549.204 484.522 539.78 484.45 528.138 485.028C516.496 485.606 502.708 486.996 487.436 489.037C472.163 491.077 455.425 493.732 437.846 495.971C421.243 498.232 404.523 499.517 387.773 499.818C374.115 500.053 360.463 499.056 346.981 496.838C337.895 495.325 328.952 493.041 320.246 490.012C318.69 489.524 317.349 489.001 316.186 488.531L313.218 487.339C311.626 486.707 310.803 486.346 310.803 486.346L313.253 487.267L316.222 488.423C317.384 488.892 318.744 489.398 320.299 489.885C329.013 492.855 337.955 495.09 347.035 496.567C360.503 498.74 374.135 499.713 387.773 499.475C404.525 499.135 421.243 497.82 437.846 495.538C455.461 493.244 472.199 490.608 487.489 488.621C502.779 486.635 516.532 485.299 528.138 484.703C537.324 484.229 546.528 484.229 555.714 484.703C562.223 485.082 565.818 485.461 565.818 485.461Z" fill="white"/>
<path d="M467.479 552.892C467.479 552.892 458.877 554.373 444.857 555.89C437.864 556.649 429.495 557.335 420.196 557.877C410.896 558.418 400.631 558.671 389.884 558.617C379.136 558.563 368.889 558.057 359.59 557.443C350.29 556.829 341.939 555.962 334.947 555.096C320.944 553.29 312.378 551.773 312.378 551.773L313.952 551.971L318.44 552.64C320.372 552.947 322.768 553.29 325.594 553.633C328.419 553.976 331.531 554.464 335.018 554.825C342.028 555.655 350.38 556.45 359.661 557.1C368.942 557.75 379.19 558.129 389.937 558.238C400.685 558.346 410.932 558.003 420.231 557.534C429.531 557.064 437.882 556.36 444.892 555.619C448.469 555.294 451.563 554.879 454.335 554.572C457.107 554.265 459.503 553.94 461.488 553.669L465.977 553.073L467.479 552.892Z" fill="white"/>
<path d="M564.816 539.962C564.816 539.962 564.477 540.089 563.851 540.269L561.114 541.118C558.718 541.841 555.249 542.834 550.939 544.008C542.337 546.337 530.338 549.227 516.961 551.701C503.584 554.175 491.334 555.782 482.464 556.685C478.029 557.136 474.435 557.443 471.949 557.624L469.088 557.823H468.086L469.07 557.696L471.931 557.425C474.417 557.209 478.011 556.847 482.428 556.36C491.37 555.385 503.513 553.759 516.889 551.285C530.266 548.811 542.248 545.958 550.867 543.683C555.177 542.563 558.647 541.606 561.043 540.92L563.815 540.143L564.816 539.962Z" fill="white"/>
<path d="M399.255 628.179C394.646 628.902 390.001 629.366 385.341 629.57C381.032 629.805 375.881 629.823 370.159 629.57C357.757 628.971 345.469 626.892 333.552 623.376C328.062 621.732 323.197 620.017 319.245 618.374C314.909 616.635 310.665 614.67 306.53 612.486L307.424 612.884L309.946 614.057C311.037 614.581 312.378 615.213 313.97 615.863C315.561 616.513 317.314 617.344 319.335 618.103C323.34 619.728 328.276 621.407 333.641 623.033C339.599 624.732 345.639 626.118 351.739 627.186C357.848 628.162 364.001 628.825 370.177 629.173C375.881 629.425 381.014 629.444 385.324 629.173C387.487 629.173 389.437 628.938 391.153 628.83C392.87 628.721 394.319 628.559 395.535 628.432L398.289 628.143L399.255 628.179Z" fill="white"/>
<path d="M571.29 623.575L569.502 623.9L564.387 624.73C559.952 625.435 553.514 626.428 545.556 627.565C529.64 629.859 507.59 632.712 483.18 635.168C458.769 637.624 436.576 639.177 420.589 640.08C412.559 640.532 406.05 640.857 401.561 641.037L396.393 641.236H394.604L396.393 641.128L401.561 640.857L420.571 639.791C436.666 638.816 458.769 637.191 483.162 634.753C507.555 632.315 529.658 629.498 545.539 627.277L564.387 624.55L569.502 623.791L571.29 623.575Z" fill="white"/>
<path d="M580.661 690.085C580.661 690.085 576.762 690.916 569.627 692.089C562.492 693.263 552.155 694.726 539.226 695.81C524.148 697.051 509.012 697.425 493.892 696.929C476.813 696.369 458.125 694.437 438.579 692.017C419.033 689.597 400.398 687.159 383.391 685.823C368.329 684.512 353.199 684.168 338.093 684.794C327.893 685.274 317.737 686.444 307.692 688.297C304.115 688.983 301.397 689.561 299.555 690.013L296.729 690.663C296.729 690.663 297.695 690.392 299.537 689.94C301.379 689.489 304.115 688.875 307.656 688.135C317.694 686.218 327.853 685.011 338.058 684.523C353.167 683.838 368.304 684.145 383.374 685.444C400.416 686.78 419.033 689.218 438.579 691.638C458.125 694.058 476.813 695.99 493.874 696.55C508.98 697.071 524.104 696.727 539.172 695.521C552.03 694.473 562.42 693.047 569.573 691.909C573.15 691.331 575.904 690.88 577.782 690.536L580.661 690.085Z" fill="white"/>
<path d="M633.13 319.032C633.13 319.032 632.612 320.458 631.449 322.95C629.773 326.454 627.823 329.817 625.619 333.009C622.34 337.727 618.756 342.222 614.889 346.463C610.562 351.303 605.59 356.395 600.583 361.921C595.801 367.061 591.436 372.581 587.528 378.427C584.345 383.205 581.767 388.368 579.856 393.795C578.553 397.492 577.706 401.338 577.335 405.244C577.156 406.598 577.21 407.682 577.156 408.404C577.102 409.127 577.156 409.506 577.156 409.506C577.108 408.078 577.144 406.649 577.263 405.226C577.57 401.335 578.369 397.499 579.642 393.813C581.529 388.355 584.095 383.16 587.278 378.355C591.185 372.476 595.557 366.926 600.35 361.759C605.393 356.251 610.383 351.158 614.657 346.336C618.514 342.113 622.098 337.643 625.387 332.955C627.615 329.793 629.594 326.46 631.306 322.986C631.95 321.758 632.326 320.765 632.647 320.115C632.969 319.465 633.13 319.032 633.13 319.032Z" fill="white"/>
<path d="M550.76 350.147L551.369 349.695L553.157 348.467C554.731 347.438 556.93 345.849 559.577 343.79C562.224 341.731 565.282 339.167 568.518 336.133C572.007 332.827 575.32 329.337 578.444 325.677C581.528 321.977 584.423 318.119 587.117 314.12C589.549 310.399 591.606 306.896 593.179 303.989C594.753 301.081 595.969 298.571 596.756 296.765L597.668 294.797L598.008 294.111C596.665 297.528 595.137 300.868 593.43 304.115C591.874 307.113 589.853 310.58 587.403 314.3C584.737 318.333 581.848 322.209 578.748 325.912C575.615 329.587 572.284 333.083 568.769 336.386C565.496 339.402 562.438 341.984 559.827 344.007C556.922 346.224 553.895 348.274 550.76 350.147Z" fill="white"/>
<path d="M422.949 434.59C423.081 434.501 423.226 434.434 423.378 434.391L424.666 433.885C425.828 433.488 427.456 432.766 429.548 431.79C435.365 428.831 440.701 424.995 445.375 420.413C452.264 413.582 458.344 405.964 463.49 397.714C469.95 387.701 475.849 377.331 481.159 366.653C490.685 347.179 499.046 327.146 506.195 306.661C509.003 298.824 511.185 292.431 512.723 288.043L514.511 282.968C514.708 282.426 514.869 282.011 514.994 281.65C515.119 281.289 515.173 281.217 515.173 281.217C515.164 281.376 515.134 281.534 515.083 281.686C514.976 282.047 514.833 282.481 514.672 283.022C514.297 284.268 513.76 285.984 513.063 288.151C511.65 292.594 509.486 298.986 506.803 306.878C499.815 327.466 491.505 347.571 481.928 367.068C476.609 377.777 470.68 388.167 464.17 398.183C458.948 406.454 452.777 414.073 445.786 420.883C441.047 425.464 435.614 429.249 429.691 432.097C428.079 432.85 426.425 433.508 424.738 434.066L423.414 434.481C423.266 434.541 423.109 434.578 422.949 434.59Z" fill="#455A64"/>
<path d="M419.962 472.802C420.257 472.516 420.581 472.262 420.928 472.043L423.825 470.039C426.311 468.233 429.905 465.687 434.233 462.346C442.907 455.682 454.298 445.732 466.53 434.373C472.682 428.702 478.566 423.339 483.644 418.21C488.185 413.701 492.404 408.874 496.27 403.763C498.862 400.305 501.171 396.639 503.173 392.802C503.924 391.465 504.389 390.364 504.747 389.641C504.916 389.266 505.113 388.904 505.337 388.558C505.247 388.964 505.109 389.359 504.925 389.732C504.604 390.472 504.192 391.538 503.477 392.964C501.591 396.893 499.346 400.635 496.771 404.143C492.976 409.347 488.791 414.249 484.252 418.806C479.174 424.007 473.308 429.389 467.156 435.059C456.786 444.879 445.929 454.161 434.627 462.87C430.245 466.174 426.597 468.666 424.022 470.346C422.752 471.195 421.733 471.791 421.053 472.152C420.705 472.393 420.34 472.61 419.962 472.802Z" fill="#455A64"/>
<path d="M371.678 665.868L371.893 665.453C372.09 665.164 372.322 664.785 372.608 664.315C373.234 663.304 374.2 661.859 375.487 660.017C378.081 656.405 382.068 651.222 387.326 645.191C397.931 633.164 412.774 616.784 429.137 598.635L471.18 552.315L484.003 538.337L487.579 534.563L488.509 533.606C488.724 533.389 488.831 533.281 488.849 533.299C488.867 533.317 488.76 533.425 488.581 533.66L487.705 534.689L484.342 538.572C481.302 541.967 477.01 546.807 471.735 552.73L429.87 599.249L387.773 645.606C382.408 651.584 378.402 656.64 375.738 660.234C374.397 662.04 373.395 663.448 372.716 664.405L371.947 665.507C371.876 665.641 371.786 665.762 371.678 665.868Z" fill="#455A64"/>
<path d="M538.636 341.298C538.345 340.402 538.124 339.484 537.974 338.553C537.777 337.668 537.563 336.567 537.402 335.284C537.241 334.002 536.972 332.54 536.901 330.914C536.829 329.289 536.633 327.501 536.651 325.497C536.668 323.492 536.651 321.524 536.794 319.357C537.415 309.998 539.68 300.826 543.482 292.268C544.394 290.318 545.27 288.458 546.2 286.851C547.13 285.244 547.989 283.636 548.901 282.264C549.813 280.891 550.689 279.682 551.368 278.652C551.995 277.743 552.669 276.869 553.389 276.034C553.932 275.285 554.53 274.579 555.178 273.921C554.715 274.743 554.183 275.522 553.586 276.25C553.049 276.973 552.388 277.858 551.708 278.941C551.029 280.025 550.152 281.198 549.365 282.553C548.579 283.907 547.577 285.46 546.772 287.158C545.968 288.855 544.984 290.77 544.162 292.575C540.468 301.091 538.23 310.177 537.545 319.447C537.437 321.578 537.276 323.6 537.312 325.497C537.348 327.393 537.312 329.108 537.455 330.788C537.598 332.467 537.706 333.858 537.831 335.14C537.956 336.422 538.099 337.524 538.242 338.427C538.465 339.369 538.597 340.33 538.636 341.298Z" fill="#455A64"/>
<path d="M564.656 406.093C564.441 406.093 561.222 399.014 557.502 390.057C553.783 381.099 550.921 373.804 551.136 373.659C553.786 378.88 556.173 384.232 558.289 389.695C560.694 395.045 562.82 400.518 564.656 406.093Z" fill="#455A64"/>
<path d="M309.087 348.829C308.944 348.919 307.549 346.336 304.921 342.418C298.053 332.188 289.178 323.491 278.847 316.865C274.895 314.336 272.302 313 272.373 312.855C273.032 313.05 273.668 313.316 274.269 313.65C275.467 314.21 277.148 315.113 279.187 316.323C284.48 319.513 289.389 323.312 293.815 327.646C298.231 331.995 302.138 336.842 305.457 342.093C306.709 344.115 307.657 345.795 308.247 346.987C308.588 347.57 308.87 348.187 309.087 348.829Z" fill="#455A64"/>
<path d="M379.279 306.138C379.175 305.54 379.175 304.929 379.279 304.332C379.582 300.938 381.028 297.751 383.374 295.302L383.481 295.194V295.32C383.609 295.572 383.705 295.839 383.767 296.115C383.767 296.115 383.571 295.88 383.32 295.411H383.481C382.322 296.795 381.375 298.347 380.674 300.016C379.93 301.981 379.46 304.041 379.279 306.138Z" fill="#455A64"/>
<path d="M402.956 318.562C402.73 317.986 402.603 317.375 402.581 316.756C402.425 315.277 402.461 313.783 402.688 312.314C402.916 310.845 403.331 309.413 403.922 308.052C404.136 307.478 404.438 306.942 404.816 306.463C404.01 308.366 403.41 310.352 403.028 312.386C402.786 314.436 402.762 316.507 402.956 318.562Z" fill="#455A64"/>
<path d="M428.761 316.467C428.678 314.783 428.45 313.109 428.082 311.465C427.582 309.846 426.929 308.28 426.132 306.788C426.491 307.142 426.792 307.55 427.026 307.998C427.645 309.048 428.12 310.178 428.439 311.357C428.748 312.536 428.91 313.749 428.922 314.968C428.954 315.474 428.9 315.981 428.761 316.467Z" fill="#455A64"/>
<path d="M451.33 306.481C450.57 304.876 449.672 303.341 448.648 301.894C447.503 300.543 446.247 299.292 444.892 298.156C445.378 298.355 445.83 298.63 446.233 298.968C447.243 299.746 448.151 300.65 448.934 301.659C449.713 302.674 450.362 303.785 450.865 304.964C451.1 305.441 451.257 305.953 451.33 306.481Z" fill="#455A64"/>
<path d="M466.87 291.004C466.297 289.105 465.228 287.396 463.777 286.056C462.27 284.789 460.443 283.969 458.501 283.691C458.501 283.691 458.68 283.691 458.984 283.691C459.411 283.705 459.836 283.759 460.254 283.853C461.648 284.188 462.942 284.857 464.027 285.803C465.115 286.745 465.956 287.942 466.477 289.289C466.645 289.688 466.765 290.106 466.835 290.535C466.867 290.689 466.879 290.847 466.87 291.004Z" fill="#455A64"/>
<path d="M475.186 262.417C473.811 261.307 472.202 260.528 470.483 260.142C468.739 259.872 466.956 260.021 465.279 260.575C466.894 259.723 468.745 259.437 470.539 259.764C472.333 260.091 473.968 261.012 475.186 262.381V262.417Z" fill="#455A64"/>
<path d="M363.756 286.869C363.79 286.333 363.917 285.807 364.131 285.316C365.083 282.896 366.885 280.916 369.192 279.754C369.66 279.497 370.168 279.326 370.695 279.248C369.074 279.957 367.619 281.001 366.423 282.314C365.228 283.627 364.319 285.179 363.756 286.869Z" fill="#455A64"/>
<path d="M358.105 267.835C358.32 267.306 358.622 266.818 358.999 266.39C359.836 265.289 360.845 264.331 361.986 263.555C363.126 262.764 364.381 262.155 365.705 261.749C366.24 261.56 366.802 261.463 367.368 261.46C363.651 262.425 360.378 264.658 358.105 267.781V267.835Z" fill="#455A64"/>
<path d="M313.647 378.824C313.647 378.824 313.647 378.716 313.54 378.824C313.465 379.01 313.411 379.204 313.379 379.402C313.289 379.962 313.2 380.774 313.093 381.84C312.878 383.953 312.646 387.023 312.395 390.869C311.877 398.472 311.287 408.928 310.732 420.612C310.178 432.296 309.749 442.752 309.498 450.373C309.373 453.985 309.284 457.127 309.212 459.402C309.212 460.377 309.212 461.208 309.105 461.858C309.131 462.141 309.131 462.425 309.105 462.707C309.025 462.432 308.995 462.144 309.015 461.858C309.015 461.19 309.015 460.377 309.015 459.402C309.015 457.271 309.015 454.183 309.015 450.373C309.015 442.752 309.409 432.206 309.981 420.576C310.553 408.946 311.233 398.436 311.912 390.833C312.252 387.023 312.592 383.953 312.914 381.804C313.075 380.756 313.236 379.998 313.379 379.384C313.428 379.167 313.513 378.959 313.629 378.77C313.629 378.607 313.683 378.86 313.647 378.824Z" fill="#263238"/>
<path d="M510.684 14.0553C495.769 9.45029 480.283 22.9402 464.903 19.9063C455.604 18.1004 448.594 10.5699 440.314 5.91076C427.956 -1.05992 410.467 -2.19761 397.841 4.28548C385.216 10.7686 377.043 17.667 375.344 31.8793C363.845 25.2156 344.674 39.8251 338.147 53.929C331.62 68.0329 333.247 82.5883 336.949 97.7034C343.38 123.773 354.815 148.315 370.605 169.938C372 171.853 374.182 173.966 376.346 172.954C377.013 172.483 377.561 171.86 377.946 171.135C378.331 170.41 378.542 169.605 378.563 168.783C380.763 154.968 379.028 140.864 377.83 126.923C376.632 112.981 376.041 98.6064 380.423 85.3874C384.804 72.1684 395.087 59.9967 408.678 57.2879C418.729 55.2834 429.155 58.5701 438.078 63.6446C447.002 68.7191 454.853 75.4731 463.347 81.2339C471.842 86.9946 481.391 91.8524 491.62 92.2858C501.85 92.7192 512.83 87.8795 517.176 78.525C521.521 69.1706 516.657 55.8793 506.642 53.7304C511.306 53.3178 515.681 51.2772 519.017 47.9595C522.352 44.6418 524.438 40.2544 524.916 35.5517C525.394 30.849 524.235 26.125 521.638 22.1919C519.04 18.2588 515.167 15.3625 510.684 14.0011V14.0553Z" fill="#263238"/>
<path d="M464.671 256.314L463.222 226.462C463.222 226.462 502.243 218.914 501.367 179.275C500.938 160.151 496.861 120.801 492.783 85.2429C490.681 66.7895 481.77 49.8136 467.827 37.6981C453.884 25.5826 435.932 19.2171 417.549 19.8702L413.757 19.9966C373.037 23.8612 353.509 60.9539 358.463 101.965L367.851 261.605C368.608 274.515 374.393 286.598 383.942 295.216C393.491 303.834 406.029 308.286 418.818 307.6C431.623 306.909 443.635 301.125 452.228 291.514C460.82 281.903 465.294 269.247 464.671 256.314Z" fill="#FFBE9D"/>
<path d="M463.276 226.462C463.276 226.462 438.543 229.37 411.611 213.586C411.611 213.586 424.702 241.686 463.723 236.72L463.276 226.462Z" fill="#EB996E"/>
<path d="M479.567 112.06C479.627 113.532 479.117 114.969 478.146 116.068C477.174 117.167 475.818 117.841 474.363 117.947C473.653 118.03 472.933 117.968 472.246 117.765C471.559 117.562 470.92 117.223 470.365 116.767C469.81 116.311 469.351 115.748 469.015 115.11C468.679 114.472 468.473 113.773 468.408 113.053C468.339 111.58 468.843 110.139 469.811 109.035C470.78 107.932 472.138 107.255 473.594 107.148C474.308 107.063 475.031 107.124 475.721 107.327C476.411 107.529 477.053 107.87 477.61 108.328C478.167 108.786 478.628 109.352 478.964 109.993C479.3 110.635 479.505 111.337 479.567 112.06Z" fill="#263238"/>
<path d="M485.021 104.855C484.342 105.613 479.996 102.597 473.97 102.832C467.943 103.067 463.633 106.263 462.954 105.541C462.614 105.216 463.275 103.861 465.153 102.381C467.694 100.461 470.762 99.3825 473.934 99.2926C477.072 99.1678 480.168 100.06 482.768 101.839C484.682 103.193 485.343 104.512 485.021 104.855Z" fill="#263238"/>
<path d="M420.338 116.304C420.403 117.779 419.895 119.221 418.923 120.323C417.952 121.426 416.592 122.102 415.134 122.209C414.424 122.292 413.704 122.23 413.017 122.027C412.33 121.824 411.691 121.485 411.136 121.029C410.581 120.573 410.122 120.009 409.786 119.372C409.45 118.734 409.244 118.035 409.179 117.315C409.115 115.841 409.623 114.399 410.594 113.296C411.566 112.193 412.925 111.517 414.383 111.41C415.094 111.328 415.814 111.39 416.501 111.592C417.187 111.795 417.827 112.134 418.382 112.59C418.937 113.046 419.395 113.61 419.732 114.248C420.068 114.885 420.274 115.584 420.338 116.304Z" fill="#263238"/>
<path d="M425.793 108.087C425.131 108.846 420.768 105.83 414.741 106.065C408.715 106.299 404.405 109.496 403.725 108.773C403.385 108.448 404.047 107.094 405.925 105.613C408.473 103.693 411.546 102.615 414.723 102.525C417.856 102.402 420.946 103.294 423.54 105.071C425.453 106.444 426.133 107.744 425.793 108.087Z" fill="#263238"/>
<path d="M449.237 152.421C449.237 152.06 452.921 151.284 458.966 150.291C460.504 150.074 461.952 149.713 462.185 148.629C462.249 147.019 461.831 145.427 460.987 144.06C459.413 140.358 457.768 136.458 456.033 132.394C449.112 115.762 444.051 102.056 444.731 101.694C445.41 101.333 451.526 114.679 458.429 131.311C460.11 135.404 461.702 139.323 463.204 143.067C464.237 144.907 464.598 147.054 464.223 149.135C464.019 149.691 463.692 150.192 463.268 150.602C462.843 151.012 462.332 151.319 461.773 151.5C460.926 151.764 460.048 151.916 459.162 151.952C453.064 152.656 449.273 152.819 449.237 152.421Z" fill="#263238"/>
<path d="M431.64 157.315C432.624 157.207 432.874 163.817 438.633 168.313C444.391 172.81 451.33 171.835 451.419 172.756C451.526 173.171 449.917 174.092 446.966 174.273C443.112 174.49 439.307 173.311 436.236 170.95C433.332 168.684 431.409 165.37 430.871 161.704C430.532 158.941 431.193 157.279 431.64 157.315Z" fill="#263238"/>
<path d="M425.328 76.8817C424.791 78.5431 418.747 77.9833 411.701 79.0849C404.655 80.1864 399.004 82.3535 398.02 80.8907C397.573 80.1864 398.503 78.5973 400.756 76.9178C403.764 74.8372 407.204 73.4789 410.812 72.9468C414.42 72.4147 418.1 72.7229 421.572 73.8478C424.183 74.7688 425.542 76.0871 425.328 76.8817Z" fill="#263238"/>
<path d="M482.196 87.41C481.177 88.8186 476.974 87.5364 471.985 87.6447C466.995 87.7531 462.793 88.9088 461.756 87.4822C461.309 86.796 461.935 85.3874 463.741 84.0149C466.144 82.3157 469.016 81.4247 471.949 81.4686C474.87 81.3643 477.75 82.1783 480.193 83.7982C481.999 85.2249 482.643 86.6154 482.196 87.41Z" fill="#263238"/>
<path d="M362.737 131.184C362.057 130.913 335.501 124.087 337.289 151.049C339.077 178.011 365.616 170.697 365.616 169.92C365.616 169.144 362.737 131.184 362.737 131.184Z" fill="#FFBE9D"/>
<path d="M356.692 160.313C356.567 160.313 356.245 160.674 355.476 161.09C354.412 161.668 353.165 161.797 352.007 161.451C349.092 160.584 346.409 156.214 345.962 151.338C345.74 149.026 346.033 146.694 346.821 144.512C347.011 143.646 347.409 142.841 347.98 142.168C348.551 141.494 349.276 140.972 350.093 140.647C350.62 140.466 351.193 140.477 351.712 140.678C352.232 140.879 352.665 141.258 352.937 141.749C353.348 142.489 353.205 143.031 353.348 143.067C353.491 143.103 353.902 142.579 353.598 141.478C353.403 140.819 352.994 140.247 352.436 139.853C351.658 139.347 350.715 139.166 349.807 139.347C348.722 139.638 347.729 140.206 346.924 140.997C346.119 141.788 345.529 142.774 345.211 143.862C344.23 146.285 343.85 148.913 344.102 151.519C344.639 156.936 347.679 161.866 351.685 162.733C352.417 162.897 353.177 162.893 353.907 162.721C354.637 162.549 355.32 162.214 355.905 161.74C356.692 160.981 356.782 160.367 356.692 160.313Z" fill="#EB996E"/>
<path d="M500.795 76.5747C492.185 79.1337 483.096 79.5922 474.276 77.9126C465.456 76.233 457.157 72.4632 450.061 66.9132C440.225 59.0757 432.464 47.5904 420.375 44.2856C416.256 43.3354 411.991 43.2212 407.828 43.9497C403.665 44.6782 399.687 46.235 396.125 48.5294C389.016 53.1537 382.928 59.2092 378.242 66.3173C386.522 86.1819 382.212 108.846 377.777 129.92C377.533 132.313 376.507 134.556 374.862 136.295C371.786 138.859 366.957 137.108 364.132 134.29C359.536 129.758 357.587 123.202 356.245 116.882C352.923 102.475 352.48 87.5446 354.94 72.9629C357.457 58.3317 364.173 44.7686 374.254 33.956C387.379 20.8095 405.055 13.3357 423.54 13.1162C441.929 13.0379 459.875 18.8133 474.829 29.6219C481.768 34.5339 488.206 40.4572 491.961 48.2044" fill="#263238"/>
<path d="M522.272 23.2111C522.385 24.0022 522.33 24.8085 522.111 25.5767C521.545 27.8121 520.293 29.8095 518.535 31.2833C515.715 33.5606 512.252 34.8758 508.645 35.0395C506.428 35.2378 504.196 35.1772 501.993 34.859C499.462 34.5148 497.07 33.4852 495.072 31.8793C493.948 30.9813 493.042 29.8363 492.422 28.5314C491.802 27.2264 491.485 25.796 491.495 24.3488C491.637 22.7735 492.215 21.2704 493.164 20.012C494.113 18.7535 495.394 17.7906 496.86 17.2336C498.381 16.5958 500.028 16.3238 501.671 16.439C503.38 16.6103 505.002 17.2819 506.338 18.3713C507.682 19.5182 508.764 20.9446 509.511 22.5528C510.258 24.1611 510.652 25.9133 510.666 27.6896C510.731 31.4378 509.338 35.0621 506.785 37.7845C504.181 40.5689 500.892 42.6065 497.254 43.6897C489.886 46.0193 481.66 44.8996 474.256 41.9922C467.073 39.0099 460.256 35.1982 453.941 30.6332C448.121 26.4658 441.966 22.799 435.539 19.6715C429.747 16.8798 423.371 15.5475 416.958 15.7889C411.397 16.1978 405.994 17.8378 401.132 20.5925C394.042 24.6689 388.106 30.5136 383.892 37.5678C382.699 39.4392 381.606 41.3743 380.62 43.3646C380.316 44.0867 379.964 44.7866 379.564 45.4594C379.597 45.2593 379.657 45.0648 379.743 44.8816C379.868 44.5204 380.065 43.9606 380.369 43.2563C381.236 41.1769 382.246 39.1614 383.391 37.2246C387.492 29.9481 393.428 23.8979 400.595 19.6896C405.59 16.8203 411.155 15.1114 416.887 14.6873C423.492 14.3759 430.072 15.6962 436.057 18.5338C442.58 21.69 448.826 25.3993 454.727 29.6219C460.957 34.1111 467.67 37.8732 474.739 40.8364C481.981 43.6536 489.886 44.7371 496.896 42.5339C500.306 41.4571 503.377 39.4957 505.802 36.8454C508.111 34.4192 509.393 31.1808 509.378 27.816C509.379 26.215 509.038 24.6327 508.377 23.1773C507.717 21.7218 506.753 20.4274 505.551 19.3826C504.39 18.455 502.998 17.8682 501.528 17.6866C500.058 17.505 498.567 17.7357 497.218 18.3532C495.92 18.8131 494.777 19.633 493.92 20.7191C493.063 21.8051 492.526 23.1132 492.372 24.4932C492.371 25.789 492.659 27.0684 493.213 28.2373C493.767 29.4061 494.573 30.4346 495.573 31.2472C497.444 32.7551 499.678 33.7336 502.046 34.0824C504.187 34.4199 506.359 34.5108 508.52 34.3533C512.068 34.2746 515.499 33.0605 518.32 30.886C520.017 29.4778 521.262 27.5922 521.897 25.4684C522.069 24.7247 522.194 23.9708 522.272 23.2111Z" fill="#455A64"/>
<path d="M334.124 77.4235C336.816 78.2817 339.582 78.8863 342.386 79.2293C345.419 79.3942 348.455 78.9649 351.327 77.9652C354.856 76.7003 358.186 74.9306 361.217 72.7101C366.692 68.5841 370.69 62.7719 372.608 56.1502C373.279 53.3675 373.775 50.5447 374.092 47.6987C374.287 48.4648 374.36 49.2573 374.307 50.0464C374.301 52.1908 374.03 54.326 373.502 56.4031C371.789 63.3837 367.716 69.5411 361.986 73.8117C358.853 76.1387 355.385 77.9659 351.703 79.2293C348.668 80.238 345.456 80.5888 342.278 80.2587C340.158 80.0132 338.085 79.4534 336.126 78.5973C335.395 78.3286 334.717 77.9312 334.124 77.4235Z" fill="#455A64"/>
<path d="M336.019 96.9811C336.019 96.7283 339.202 97.3242 344.263 96.8547C350.841 96.2885 357.148 93.9485 362.524 90.0792C367.9 86.2099 372.149 80.9534 374.825 74.8591C376.918 70.1819 377.383 66.9855 377.633 67.0397C377.682 67.7989 377.609 68.561 377.418 69.297C377.025 71.3282 376.426 73.3131 375.63 75.2203C373.11 81.6248 368.817 87.1611 363.264 91.1673C357.711 95.1735 351.133 97.4803 344.317 97.8118C342.273 97.9183 340.225 97.8215 338.201 97.5228C337.45 97.4594 336.713 97.2766 336.019 96.9811Z" fill="#455A64"/>
<path d="M406.658 134.688C406.569 134.706 406.477 134.706 406.387 134.687C406.298 134.669 406.213 134.632 406.138 134.58C406.063 134.528 405.999 134.461 405.95 134.383C405.901 134.306 405.868 134.219 405.853 134.128C405.823 134.04 405.812 133.947 405.819 133.855C405.827 133.763 405.853 133.673 405.897 133.591C405.94 133.51 406.001 133.438 406.073 133.381C406.146 133.325 406.229 133.284 406.318 133.261C406.495 133.243 406.672 133.29 406.816 133.394C406.961 133.497 407.064 133.651 407.105 133.825C407.146 133.999 407.124 134.182 407.042 134.341C406.96 134.5 406.823 134.623 406.658 134.688Z" fill="#EB996E"/>
<path d="M418.174 131.636C417.981 131.634 417.794 131.567 417.643 131.446C417.493 131.324 417.387 131.154 417.344 130.964C417.3 130.774 417.321 130.575 417.404 130.398C417.486 130.222 417.625 130.079 417.798 129.992C417.996 129.976 418.193 130.036 418.348 130.16C418.504 130.284 418.608 130.463 418.639 130.661C418.702 130.852 418.689 131.061 418.602 131.244C418.516 131.426 418.362 131.566 418.174 131.636Z" fill="#EB996E"/>
<path d="M425.847 131.166C425.471 131.166 425.113 130.787 425.006 130.191C424.899 129.595 425.131 129.053 425.489 128.999C425.847 128.945 426.222 129.378 426.329 129.974C426.437 130.57 426.204 131.112 425.847 131.166Z" fill="#EB996E"/>
<path d="M412.577 141.785C412.22 141.785 411.898 141.622 411.898 141.388C411.898 141.153 412.184 140.936 412.542 140.936C412.899 140.936 413.221 141.099 413.221 141.333C413.221 141.568 412.953 141.767 412.577 141.785Z" fill="#EB996E"/>
<path d="M423.056 138.932C422.869 138.942 422.686 138.877 422.546 138.752C422.405 138.627 422.319 138.452 422.305 138.263C422.287 138.17 422.287 138.073 422.306 137.98C422.325 137.886 422.363 137.797 422.416 137.718C422.469 137.64 422.537 137.572 422.616 137.52C422.696 137.468 422.784 137.432 422.877 137.415C423.066 137.41 423.249 137.478 423.389 137.606C423.529 137.734 423.615 137.911 423.628 138.101C423.66 138.287 423.617 138.479 423.51 138.634C423.403 138.79 423.24 138.896 423.056 138.932Z" fill="#EB996E"/>
<path d="M477.815 130.354C477.723 130.372 477.629 130.371 477.537 130.352C477.446 130.332 477.359 130.295 477.283 130.241C477.206 130.187 477.141 130.118 477.091 130.038C477.041 129.958 477.007 129.869 476.992 129.776C476.962 129.687 476.95 129.593 476.958 129.499C476.965 129.406 476.991 129.315 477.035 129.232C477.079 129.149 477.139 129.076 477.211 129.017C477.284 128.958 477.368 128.915 477.457 128.891C477.64 128.868 477.825 128.913 477.977 129.018C478.128 129.123 478.237 129.281 478.281 129.462C478.325 129.642 478.302 129.833 478.216 129.997C478.13 130.162 477.987 130.288 477.815 130.354Z" fill="#EB996E"/>
<path d="M485.63 129.36C485.435 129.343 485.252 129.259 485.111 129.122C484.97 128.985 484.879 128.804 484.854 128.608C484.829 128.412 484.871 128.213 484.973 128.045C485.075 127.876 485.231 127.748 485.416 127.681C485.773 127.681 486.113 127.97 486.185 128.421C486.229 128.62 486.196 128.828 486.093 129.002C485.99 129.177 485.824 129.305 485.63 129.36Z" fill="#EB996E"/>
<path d="M470.877 130.751C470.763 130.762 470.65 130.74 470.549 130.687C470.447 130.635 470.364 130.554 470.307 130.454C470.251 130.355 470.224 130.241 470.23 130.126C470.236 130.011 470.275 129.901 470.341 129.808C470.408 129.715 470.5 129.644 470.606 129.602C470.712 129.561 470.828 129.551 470.939 129.574C471.05 129.598 471.152 129.653 471.233 129.733C471.314 129.814 471.371 129.917 471.395 130.029C471.416 130.193 471.374 130.36 471.278 130.494C471.182 130.628 471.038 130.72 470.877 130.751Z" fill="#EB996E"/>
<path d="M476.974 138.534C476.796 138.595 476.601 138.587 476.429 138.51C476.257 138.433 476.119 138.293 476.044 138.119C475.996 138.036 475.966 137.945 475.953 137.85C475.941 137.755 475.947 137.658 475.972 137.566C475.997 137.473 476.04 137.387 476.099 137.311C476.157 137.236 476.23 137.173 476.312 137.126C476.489 137.081 476.676 137.099 476.841 137.177C477.005 137.255 477.138 137.389 477.216 137.555C477.294 137.722 477.313 137.91 477.269 138.089C477.225 138.267 477.12 138.425 476.974 138.534Z" fill="#EB996E"/>
<path d="M483.627 136.927C483.547 136.916 483.47 136.889 483.4 136.847C483.33 136.806 483.269 136.751 483.221 136.685C483.173 136.619 483.138 136.545 483.119 136.465C483.099 136.386 483.096 136.303 483.108 136.223C483.165 136.069 483.279 135.943 483.426 135.872C483.573 135.801 483.741 135.791 483.895 135.844C484.054 135.866 484.197 135.951 484.294 136.079C484.391 136.208 484.434 136.369 484.414 136.53C484.361 136.687 484.249 136.817 484.101 136.892C483.954 136.966 483.784 136.979 483.627 136.927Z" fill="#EB996E"/>
<path d="M470.358 586.987L469.929 546.843C469.929 546.843 443.408 509.732 453.834 469.479C453.834 469.479 471.127 457.199 517.498 464.387C517.498 464.387 575.708 407.122 653.732 421.696C731.757 436.269 739.017 504.91 739.768 523.601C740.519 542.292 740.341 578.59 713.48 614.076L711.692 649.29C711.692 649.29 705.289 662.545 686.78 661.642C668.271 660.739 669.308 658.031 669.308 658.031C669.308 658.031 646.06 676.974 645.059 681.922C644.057 686.87 640.409 705.633 640.409 705.633C640.409 705.633 632.344 716.703 614.944 718.004C608.061 718.497 601.176 717.072 595.04 713.886C592.712 712.696 590.642 711.05 588.95 709.044C587.259 707.038 585.979 704.712 585.186 702.202C583.523 696.643 580.715 691.503 576.946 687.117C573.176 682.732 568.531 679.202 563.315 676.758L551.297 673.579C551.297 673.579 546.451 678.04 529.587 679.864C512.723 681.688 512.652 675.656 512.652 675.656C512.652 675.656 486.417 681.778 466.71 655.791C451.152 635.24 442.693 598.274 470.358 586.987Z" fill="#757575"/>
<path d="M632.094 589.299C632.357 588.869 632.649 588.459 632.97 588.071C633.56 587.276 634.436 586.121 635.527 584.604C637.727 581.588 640.803 577.127 644.201 571.367C648.155 564.613 651.587 557.561 654.465 550.274C656.093 546.157 657.613 541.768 658.954 537.163C660.295 532.558 661.422 527.574 660.242 522.716C658.822 518.008 655.776 513.971 651.658 511.339C647.862 508.768 643.796 506.63 639.533 504.965C632.315 502.087 624.728 500.263 617 499.547C611.79 499.048 606.545 499.048 601.335 499.547C599.546 499.709 598.062 499.89 597.078 500.034C596.59 500.137 596.093 500.192 595.594 500.197C596.073 500.043 596.563 499.929 597.06 499.854C598.008 499.655 599.439 499.402 601.299 499.186C606.526 498.529 611.806 498.427 617.054 498.879C624.894 499.474 632.603 501.245 639.926 504.134C644.259 505.796 648.393 507.946 652.248 510.545C656.555 513.298 659.731 517.531 661.19 522.463C662.441 527.646 661.19 532.811 659.884 537.416C658.579 542.021 656.969 546.445 655.306 550.599C652.383 557.91 648.879 564.97 644.826 571.71C642.091 576.245 639.105 580.622 635.885 584.82C634.74 586.319 633.81 587.439 633.185 588.179C632.858 588.588 632.493 588.963 632.094 589.299Z" fill="#263238"/>
<path d="M523.006 466.138C523.142 466.429 523.232 466.74 523.274 467.059C523.447 467.982 523.49 468.924 523.399 469.858C522.948 473.314 521.376 476.521 518.928 478.978C516.013 482.229 511.578 484.883 507.251 488.459C502.51 492.309 498.134 496.595 494.178 501.263C486.976 509.748 481.168 519.345 476.974 529.687C475.365 533.66 474.31 536.91 473.594 539.258C473.29 540.324 473.022 541.208 472.808 541.913C472.735 542.225 472.627 542.528 472.486 542.816C472.489 542.491 472.537 542.169 472.629 541.859C472.808 541.136 473.004 540.251 473.255 539.15C474.105 535.859 475.144 532.621 476.366 529.452C480.408 518.938 486.195 509.197 493.481 500.649C497.472 495.942 501.903 491.637 506.714 487.791C511.131 484.179 515.566 481.633 518.463 478.527C520.864 476.188 522.468 473.14 523.042 469.822C523.161 468.597 523.149 467.361 523.006 466.138Z" fill="#263238"/>
<g opacity="0.5">
<path d="M554.194 471.05L577.925 477.172C577.925 477.172 612.672 437.75 650.835 427.763L636.528 424.35C605.167 431.492 576.552 447.722 554.194 471.05Z" fill="black"/>
</g>
<path d="M643.091 425.867C611.884 432.953 583.49 449.305 561.562 472.82L554.194 471.014C554.194 471.014 587.85 433.723 636.546 424.314L643.091 425.867Z" fill="#757575"/>
<g opacity="0.7">
<path d="M643.091 425.867C611.884 432.953 583.49 449.305 561.562 472.82L554.194 471.014C554.194 471.014 587.85 433.723 636.546 424.314L643.091 425.867Z" fill="black"/>
</g>
<path d="M458.895 595.168C472.039 576.17 505.016 581.985 520.055 599.069C535.095 616.152 541.766 639.665 531.983 659.927C527.799 668.577 519.787 676.18 510.255 675.999C515.011 670.612 518.418 664.152 520.192 657.161C521.966 650.17 522.054 642.851 520.449 635.818C517.391 621.642 508.538 609.127 497.344 600.026C491.675 595.403 485.29 590.328 478.03 589.606C470.769 588.884 464.957 588.667 458.895 595.168Z" fill="#757575"/>
<g opacity="0.3">
<path d="M458.895 595.168C472.039 576.17 505.016 581.985 520.056 599.069C535.095 616.152 541.766 639.665 531.984 659.927C527.799 668.577 519.787 676.18 510.256 675.999C515.011 670.612 518.419 664.152 520.192 657.161C521.966 650.17 522.054 642.851 520.449 635.818C517.391 621.642 508.539 609.128 497.344 600.026C491.675 595.403 485.291 590.328 478.03 589.606C470.77 588.884 464.958 588.667 458.895 595.168Z" fill="black"/>
</g>
<g opacity="0.3">
<path d="M633.417 588.179C633.167 592.206 636.815 595.764 640.767 596.233C642.763 596.354 644.759 595.995 646.59 595.185C648.421 594.375 650.036 593.138 651.301 591.574C653.791 588.417 655.616 584.779 656.666 580.884C660.779 567.863 662.907 548.378 660.743 534.96C655.056 552.423 644.898 574.202 633.113 588.215" fill="black"/>
</g>
<g opacity="0.3">
<path d="M645.881 528.134C643.324 520.495 635.491 516.035 627.998 513.398C620.314 510.691 612.288 509.098 604.16 508.667C601.603 508.385 599.016 508.637 596.56 509.407C595.341 509.808 594.243 510.516 593.37 511.463C592.497 512.411 591.878 513.568 591.57 514.825C591.409 515.855 591.566 516.911 592.021 517.848C592.475 518.785 593.204 519.558 594.11 520.062C607.069 535.209 616.738 552.933 622.49 572.089C622.734 572.931 623.199 573.692 623.836 574.289C624.473 574.887 625.257 575.3 626.107 575.485C626.957 575.67 627.84 575.62 628.664 575.34C629.488 575.06 630.222 574.561 630.788 573.895C636.868 566.888 640.373 557.443 643.521 548.486C645.774 541.913 648.099 534.725 645.881 528.134Z" fill="black"/>
</g>
<g opacity="0.3">
<path d="M474.9 531.655C466.771 518.885 462.588 503.962 462.882 488.784C462.882 485.587 463.347 482.12 465.547 479.845C468.211 477.082 472.539 477.028 476.277 477.28C486.812 477.944 497.281 479.429 507.59 481.723C508.395 481.903 509.379 482.174 509.629 482.951C509.912 483.549 509.997 484.223 509.871 484.873C509.745 485.523 509.416 486.116 508.931 486.563C492.926 496.477 481.57 514.716 475.526 532.558" fill="black"/>
</g>
<path d="M454.96 470.906C454.994 471.817 454.952 472.729 454.835 473.633C454.692 475.438 454.531 477.913 454.424 481.037C453.881 493.673 455.453 506.311 459.073 518.418C460.289 522.373 461.559 525.859 462.775 528.748C463.991 531.637 465.046 533.931 465.815 535.484C466.269 536.274 466.641 537.109 466.924 537.976C466.383 537.248 465.904 536.475 465.493 535.664C464.617 534.147 463.473 531.872 462.185 529.001C460.675 525.644 459.361 522.201 458.251 518.689C456.926 514.37 455.863 509.974 455.067 505.524C453.717 497.456 453.279 489.259 453.762 481.091C453.959 477.967 454.209 475.42 454.477 473.687C454.55 472.746 454.711 471.815 454.96 470.906Z" fill="#FAFAFA"/>
<path d="M635.151 423.05C634.855 423.199 634.543 423.314 634.221 423.393L631.539 424.188C630.358 424.513 628.928 424.91 627.283 425.452C625.637 425.994 623.706 426.517 621.721 427.258C617.59 428.648 612.779 430.508 607.504 432.784C602.228 435.059 596.559 437.876 590.783 441.127C585.007 444.377 579.713 447.863 575.01 451.168C570.307 454.472 566.247 457.723 562.939 460.558C561.24 461.913 559.791 463.267 558.486 464.405C557.18 465.542 556.09 466.554 555.213 467.402L553.139 469.299C552.656 469.732 552.388 469.949 552.37 469.913C552.557 469.642 552.773 469.394 553.014 469.172L554.963 467.131C555.803 466.247 556.859 465.199 558.146 464.025C559.434 462.852 560.829 461.461 562.51 460.052C565.782 457.145 569.842 453.876 574.509 450.463C579.612 446.813 584.895 443.426 590.336 440.314C595.801 437.251 601.417 434.472 607.164 431.989C612.529 429.75 617.357 427.944 621.47 426.572C623.545 425.867 625.441 425.38 627.104 424.892C628.767 424.404 630.215 424.043 631.414 423.772L634.132 423.158C634.464 423.07 634.808 423.034 635.151 423.05Z" fill="#FAFAFA"/>
<path d="M656.022 518.473C655.879 518.635 653.178 515.854 647.992 512.513C644.951 510.573 641.757 508.888 638.443 507.475C634.398 505.765 630.208 504.43 625.924 503.484C618.096 501.748 610.047 501.255 602.068 502.021C595.952 502.653 592.25 503.682 592.197 503.484C593.04 503.164 593.907 502.911 594.79 502.725C597.141 502.11 599.531 501.658 601.943 501.371C609.999 500.387 618.162 500.79 626.085 502.563C630.437 503.527 634.688 504.906 638.782 506.68C642.125 508.145 645.327 509.916 648.35 511.971L650.138 513.217L651.694 514.463C652.541 515.097 653.342 515.791 654.09 516.54C654.784 517.131 655.43 517.777 656.022 518.473Z" fill="#FAFAFA"/>
<path d="M496.055 673.074C495.76 673.038 495.47 672.959 495.197 672.839C494.39 672.591 493.596 672.301 492.819 671.972C489.923 670.816 487.129 669.414 484.467 667.782C475.592 662.419 468.203 654.876 462.988 645.856C457.773 636.835 454.901 626.63 454.638 616.188C454.534 613.05 454.695 609.908 455.121 606.798C455.246 605.696 455.443 604.847 455.532 604.27C455.581 603.976 455.653 603.686 455.747 603.403C455.732 604.551 455.642 605.697 455.479 606.834C455.194 609.937 455.128 613.057 455.282 616.17C455.726 626.462 458.647 636.489 463.791 645.384C468.936 654.279 476.149 661.775 484.807 667.222C487.424 668.88 490.149 670.358 492.962 671.647C494.947 672.514 496.073 673.001 496.055 673.074Z" fill="#FAFAFA"/>
<g opacity="0.2">
<path d="M500.741 631.358C499.351 630.879 497.852 630.82 496.429 631.189C495.005 631.558 493.72 632.338 492.73 633.434C491.763 634.55 491.057 635.871 490.664 637.3C490.271 638.728 490.201 640.228 490.458 641.687C490.727 644.514 491.93 647.166 493.874 649.218C495.486 650.794 497.553 651.812 499.776 652.125C501.163 652.094 502.516 651.678 503.686 650.923C504.856 650.168 505.798 649.104 506.41 647.845C507.181 646.401 507.645 644.81 507.775 643.174C507.904 641.539 507.696 639.894 507.163 638.344C506.63 636.794 505.784 635.372 504.679 634.17C503.573 632.967 502.232 632.01 500.741 631.358Z" fill="black"/>
</g>
<path d="M497.969 630.978C496.681 632.548 495.809 634.424 495.435 636.427C495.061 638.431 495.198 640.498 495.833 642.434C496.468 644.369 497.58 646.11 499.064 647.493C500.548 648.876 502.356 649.854 504.318 650.337C503.513 651.066 502.549 651.592 501.505 651.871C500.46 652.151 499.365 652.176 498.309 651.945C495.683 651.063 493.427 649.317 491.903 646.985C490.378 644.653 489.674 641.871 489.904 639.087C490.016 636.804 490.936 634.638 492.497 632.983C494.012 631.653 495.962 630.939 497.969 630.978Z" fill="#757575"/>
<g opacity="0.4">
<path d="M497.969 630.978C496.681 632.548 495.809 634.424 495.435 636.427C495.062 638.431 495.199 640.498 495.834 642.434C496.468 644.369 497.58 646.11 499.064 647.493C500.548 648.876 502.356 649.854 504.318 650.337C503.514 651.066 502.55 651.592 501.505 651.871C500.461 652.151 499.365 652.176 498.309 651.945C495.683 651.063 493.427 649.317 491.903 646.985C490.379 644.653 489.675 641.871 489.904 639.087C490.016 636.804 490.936 634.638 492.497 632.983C494.012 631.653 495.962 630.939 497.969 630.978Z" fill="black"/>
</g>
<g opacity="0.2">
<path d="M474.381 621.082C473.038 620.63 471.593 620.58 470.222 620.939C468.851 621.298 467.612 622.05 466.656 623.105C465.722 624.181 465.039 625.456 464.659 626.834C464.278 628.213 464.209 629.66 464.456 631.069C464.752 633.776 465.914 636.311 467.765 638.292C469.327 639.809 471.323 640.789 473.469 641.091C474.805 641.063 476.108 640.664 477.234 639.938C478.36 639.211 479.266 638.186 479.854 636.974C480.594 635.578 481.041 634.042 481.164 632.463C481.288 630.884 481.087 629.296 480.572 627.8C480.058 626.303 479.243 624.931 478.177 623.768C477.112 622.606 475.819 621.679 474.381 621.046" fill="black"/>
</g>
<path d="M471.717 620.757C470.467 622.27 469.62 624.08 469.257 626.015C468.893 627.95 469.025 629.947 469.639 631.817C470.253 633.687 471.33 635.367 472.767 636.699C474.203 638.032 475.953 638.971 477.85 639.43C477.072 640.135 476.14 640.644 475.13 640.917C474.121 641.19 473.061 641.219 472.038 641.001C469.506 640.145 467.33 638.455 465.862 636.203C464.393 633.95 463.715 631.265 463.937 628.577C464.04 626.382 464.923 624.299 466.423 622.708C467.906 621.402 469.821 620.705 471.788 620.757" fill="#757575"/>
<g opacity="0.4">
<path d="M471.717 620.757C470.467 622.27 469.62 624.08 469.257 626.015C468.893 627.95 469.025 629.947 469.639 631.817C470.253 633.687 471.33 635.367 472.767 636.699C474.203 638.032 475.953 638.972 477.85 639.43C477.072 640.135 476.14 640.644 475.13 640.917C474.121 641.19 473.061 641.219 472.038 641.001C469.506 640.145 467.33 638.455 465.862 636.203C464.393 633.95 463.715 631.265 463.937 628.577C464.04 626.382 464.923 624.299 466.423 622.708C467.906 621.402 469.821 620.705 471.788 620.757" fill="black"/>
</g>
<path d="M542.23 571.385C542.23 571.385 542.411 571.385 542.483 571.258H542.609L542.23 571.385Z" fill="#263238"/>
<path d="M555.75 577.019C554.9 574.71 553.256 572.787 551.118 571.601C549.42 570.743 547.545 570.303 545.646 570.319H545.485C544.428 570.385 543.4 570.694 542.48 571.222C540.495 572.22 538.795 573.715 537.543 575.564C536.291 577.414 535.528 579.556 535.327 581.786C535.202 584.639 535.916 587.465 537.38 589.908C538.844 592.351 540.992 594.3 543.553 595.511C545.243 596.389 547.173 596.681 549.043 596.342C550.897 595.807 552.516 594.655 553.639 593.073C555.35 590.817 556.445 588.147 556.816 585.33C557.186 582.513 556.818 579.648 555.75 577.019Z" fill="#263238"/>
<path d="M486.953 553.814C487.028 553.77 487.107 553.734 487.188 553.705H487.296L486.953 553.814Z" fill="#263238"/>
<path d="M498.649 558.743C497.93 556.711 496.498 555.015 494.625 553.976C493.162 553.23 491.543 552.846 489.904 552.856H489.707C488.794 552.918 487.907 553.189 487.114 553.651C485.39 554.512 483.914 555.807 482.827 557.41C481.74 559.013 481.08 560.872 480.909 562.807C480.803 565.278 481.426 567.724 482.699 569.837C483.973 571.949 485.84 573.632 488.062 574.671C489.502 575.532 491.217 575.795 492.845 575.404C494.473 575.014 495.887 574 496.789 572.576C498.258 570.63 499.201 568.333 499.527 565.908C499.853 563.483 499.551 561.015 498.649 558.743Z" fill="#263238"/>
<path d="M502.226 588.92C502.603 588.944 502.976 589.017 503.335 589.136C504.388 589.407 505.426 589.732 506.446 590.112C510.211 591.504 513.753 593.445 516.962 595.872C521.763 599.458 525.848 603.931 528.997 609.055C532.816 615.349 535.357 622.347 536.472 629.642C537.613 636.924 537.528 644.348 536.222 651.602C535.275 657.605 532.707 663.229 528.8 667.855C526.113 670.918 522.632 673.164 518.75 674.338C517.349 674.802 515.877 675.004 514.404 674.934C515.84 674.736 517.257 674.422 518.643 673.995C522.393 672.71 525.734 670.434 528.317 667.403C532.05 662.834 534.491 657.33 535.381 651.475C536.631 644.311 536.686 636.987 535.542 629.805C534.451 622.63 531.978 615.74 528.264 609.525C525.199 604.463 521.234 600.018 516.568 596.414C513.424 593.986 509.979 591.983 506.321 590.455C503.764 589.443 502.226 589.01 502.226 588.92Z" fill="#263238"/>
<path d="M485.147 567.556C485.057 567.556 484.592 567.231 484.11 566.382C483.529 565.268 483.216 564.03 483.198 562.771C483.203 561.512 483.51 560.273 484.092 559.159C484.575 558.31 485.022 557.913 485.129 557.985C484.606 559.552 484.269 561.177 484.127 562.825C484.291 564.435 484.633 566.022 485.147 567.556Z" fill="#FAFAFA"/>
<path d="M539.065 587.511C538.958 587.511 538.511 587.096 538.117 586.139C537.634 584.868 537.505 583.488 537.741 582.148C537.945 580.812 538.515 579.561 539.387 578.536C540.066 577.741 540.639 577.452 540.71 577.543C539.779 579.018 539.085 580.633 538.654 582.328C538.5 584.067 538.639 585.819 539.065 587.511Z" fill="#FAFAFA"/>
<path d="M572.989 682.934C572.9 683.078 570.736 681.561 566.945 679.647C561.978 677.227 556.844 675.175 551.583 673.507C545.413 671.484 539.798 669.751 535.774 668.306C533.771 667.602 532.198 666.988 531.053 666.5C530.469 666.296 529.911 666.024 529.39 665.687C531.623 666.231 533.826 666.894 535.989 667.674C540.031 668.956 545.682 670.581 551.869 672.622C557.181 674.288 562.33 676.446 567.249 679.069C568.197 679.557 569.037 680.08 569.734 680.532C570.355 680.903 570.953 681.313 571.523 681.76C572.06 682.084 572.553 682.479 572.989 682.934Z" fill="#263238"/>
<path d="M699.871 624.766C699.391 625.658 698.841 626.51 698.226 627.313C697.153 628.92 695.454 631.177 693.29 633.886C687.534 640.873 681.283 647.427 674.584 653.498C666.769 660.721 659.491 666.843 654.341 671.466L648.26 676.884C647.551 677.596 646.786 678.248 645.971 678.834C646.588 678.043 647.27 677.306 648.01 676.631C649.369 675.241 651.39 673.29 653.911 670.906C658.955 666.157 666.161 659.873 673.941 652.739C680.605 646.689 686.894 640.23 692.772 633.398C695.007 630.762 696.777 628.577 697.94 627.042C698.525 626.234 699.17 625.473 699.871 624.766Z" fill="#263238"/>
<g opacity="0.2">
<path d="M669.47 658.211C679.091 659.006 690.018 656.026 696.849 649.182C700.278 645.657 702.593 641.184 703.5 636.329C704.408 631.475 703.867 626.457 701.946 621.913C696.331 630.003 690 638.599 682.274 645.209C677.41 649.38 674.173 654.437 669.47 658.265" fill="black"/>
</g>
<g opacity="0.5">
<path d="M635.205 431.086C647.724 449.687 673.386 455.574 685.797 474.21C690.607 481.434 692.95 489.958 695.275 498.337L723.888 602.59C725.068 579.999 719.686 557.642 714.321 535.664C709.051 513.994 703.764 492.323 698.458 470.653C697.584 465.805 695.838 461.16 693.308 456.946C690.482 452.847 686.28 449.976 682.185 447.195C667.485 437.226 652.355 427.077 635.116 423.104" fill="black"/>
</g>
<g opacity="0.3">
<path d="M547.435 487.393C548.221 489.922 544.788 493.371 539.441 497.651C536.74 499.782 533.593 502.22 530.124 504.874C526.654 507.529 522.97 510.436 519.09 513.579C515.209 516.721 511.704 519.845 508.36 522.608C505.016 525.371 502.101 528.134 499.418 530.355C494.178 534.78 490.155 537.47 487.848 536.17C485.541 534.87 485.702 529.741 488.76 522.554C490.589 518.384 492.913 514.455 495.681 510.852C502.456 501.984 511.172 494.82 521.146 489.922C525.206 487.929 529.486 486.432 533.897 485.461C541.569 483.962 546.683 484.973 547.435 487.393Z" fill="white"/>
</g>
<path d="M499.597 629.913C498.283 630.393 496.922 630.726 495.537 630.906C494.22 631.365 492.86 631.686 491.478 631.863C492.532 630.857 493.881 630.224 495.323 630.057C496.697 629.559 498.192 629.508 499.597 629.913Z" fill="#FAFAFA"/>
<path d="M472.45 619.963C471.206 620.26 469.946 620.483 468.677 620.631C466.656 621.082 465.1 621.931 464.993 621.696C464.885 621.462 466.245 620.216 468.462 619.71C469.11 619.483 469.797 619.388 470.481 619.431C471.166 619.475 471.835 619.655 472.45 619.963Z" fill="#FAFAFA"/>
<path d="M592.839 703.936C592.589 704.062 590.211 700.017 586.902 695.268C583.594 690.518 580.643 686.888 580.84 686.708C583.481 689.041 585.781 691.741 587.671 694.726C589.808 697.54 591.547 700.639 592.839 703.936Z" fill="#FAFAFA"/>
<path d="M486.309 514.409C486.56 514.572 483.037 519.827 479.979 526.87C476.921 533.913 475.454 540.071 475.168 539.998C475.209 538.616 475.45 537.247 475.884 535.935C476.701 532.702 477.783 529.542 479.12 526.491C480.446 523.434 482.019 520.492 483.824 517.696C484.51 516.498 485.346 515.393 486.309 514.409Z" fill="#FAFAFA"/>
<path d="M573.007 479.448C569.564 479.108 566.186 478.275 562.975 476.973C559.663 475.954 556.505 474.484 553.586 472.603C553.711 472.35 557.932 474.192 563.279 476.071C568.626 477.949 573.079 479.177 573.007 479.448Z" fill="#FAFAFA"/>
<path d="M712.496 450.174C708.315 455.939 702.167 459.934 695.239 461.389C698.376 459.966 701.438 458.381 704.413 456.639C707.214 454.624 709.912 452.466 712.496 450.174Z" fill="#EB996E"/>
<path d="M764.876 438.093C755.255 415.7 659.151 336.205 659.151 336.205L604.965 407.249C605.751 406.183 693.361 460.07 693.361 460.07L719.202 579.042L723.655 600.279C723.655 600.279 712.031 610.518 712.514 621.317C712.818 628.541 696.419 644.089 696.419 644.089C692.521 640.821 690.017 639.9 688.05 640.279L670.614 656.766L674.763 660.595C679.388 664.856 685.476 667.13 691.734 666.934L721.545 666.013C725.797 665.888 729.832 664.094 732.794 661.01C741.968 651.493 761.317 630.202 761.693 619.945C761.925 614.202 761.961 608.73 761.943 604.324C761.854 604.27 774.479 460.486 764.876 438.093Z" fill="#FFBE9D"/>
<path d="M736.335 628.342C735.842 628.792 735.281 629.158 734.672 629.426C733.581 630.04 731.9 630.762 729.951 631.845C727.705 633.154 725.722 634.875 724.103 636.92C722.055 639.499 719.645 641.762 716.95 643.638C711.966 646.988 706.048 648.634 700.068 648.333C699.02 648.332 697.979 648.148 696.992 647.791C696.593 647.65 696.245 647.393 695.991 647.052C695.736 646.712 695.587 646.303 695.561 645.877C695.545 645.611 695.593 645.345 695.703 645.103C695.812 644.86 695.978 644.649 696.187 644.487C696.491 644.306 696.688 644.342 696.688 644.36C696.688 644.378 696.527 644.36 696.295 644.631C696.14 644.791 696.025 644.986 695.96 645.199C695.895 645.413 695.881 645.639 695.919 645.859C695.97 646.2 696.117 646.518 696.342 646.778C696.567 647.037 696.861 647.226 697.189 647.322C698.128 647.605 699.107 647.728 700.086 647.683C705.897 647.797 711.604 646.121 716.449 642.879C719.072 641.056 721.426 638.867 723.441 636.378C725.148 634.285 727.244 632.549 729.611 631.267C731.65 630.238 733.349 629.624 734.493 629.1C735.084 628.794 735.701 628.541 736.335 628.342Z" fill="#EB996E"/>
<path d="M722.707 644.017C722.833 644.252 720.365 645.715 717.718 647.99C715.071 650.265 713.211 652.45 712.997 652.288C713.971 650.319 715.393 648.611 717.146 647.304C718.704 645.763 720.614 644.634 722.707 644.017Z" fill="#EB996E"/>
<path d="M734.708 594.735C734.708 595.006 732.079 595.168 729.2 596.541C726.32 597.913 724.496 599.845 724.3 599.647C725.424 597.944 726.988 596.583 728.822 595.711C730.656 594.839 732.691 594.489 734.708 594.699V594.735Z" fill="#EB996E"/>
<path d="M716.109 653.299C716.109 653.462 714.195 652.523 710.976 651.764C705.621 650.429 700 650.667 694.774 652.45C694.191 652.672 693.594 652.853 692.986 652.992C692.319 653.115 691.63 652.966 691.072 652.577L686.423 649.037C684.923 648.036 683.516 646.9 682.22 645.642C683.826 646.466 685.363 647.42 686.816 648.496L691.627 651.8C692.396 652.396 693.415 651.945 694.542 651.529C695.713 651.12 696.907 650.782 698.118 650.518C702.445 649.656 706.913 649.841 711.155 651.06C712.427 651.427 713.666 651.904 714.857 652.486C715.697 652.974 716.145 653.245 716.109 653.299Z" fill="#EB996E"/>
<path d="M513.903 377.361C502.44 374.057 497.361 372.63 497.361 372.63V367.321H501.921C506.5 367.321 513.081 361.56 513.081 361.56L522.863 346.445L524.114 336.747C523.077 324.792 508.806 329.524 508.806 329.524C508.127 325.352 489.85 321.162 476.116 318.58C471.516 317.712 466.783 317.887 462.258 319.093C457.733 320.298 453.53 322.504 449.953 325.551L436.773 336.783L397.287 371.655L295.353 458.608L228.345 438.635C228.345 438.635 207.028 504.459 203.576 528.044C196.906 573.353 258.585 603.547 285.839 580.233C306.977 562.175 430.264 428.034 450.686 405.804H450.847C463.365 404.197 484.611 391.357 484.611 391.357L495.501 392.657C495.501 392.657 524.436 398.237 527.87 392.513C530.445 388.088 525.366 380.666 513.903 377.361Z" fill="#FFBE9D"/>
<path d="M454.549 364.215C454.549 364.215 454.835 364.63 455.175 365.479C455.671 366.677 456.066 367.915 456.355 369.181C457.327 373.366 457.485 377.702 456.82 381.948C456.162 386.196 454.679 390.271 452.457 393.939C451.796 395.05 451.043 396.102 450.203 397.082C449.613 397.786 449.255 398.147 449.202 398.093C449.148 398.039 450.346 396.431 451.884 393.614C455.945 386.216 457.306 377.614 455.729 369.307C455.103 366.147 454.388 364.269 454.549 364.215Z" fill="#EB996E"/>
<path d="M461.935 327.339C462.299 327.244 462.67 327.177 463.044 327.14C463.795 327.032 464.832 326.887 466.281 326.761C470.277 326.317 474.312 326.36 478.298 326.887C481.065 327.298 483.757 328.114 486.292 329.307C489.235 330.661 491.835 332.674 493.892 335.194C496.237 337.999 497.535 341.546 497.558 345.217C497.525 347.163 497.041 349.074 496.145 350.797C495.192 352.534 493.987 354.116 492.569 355.492C489.894 358.103 486.964 360.432 483.824 362.445C482.338 363.455 480.764 364.326 479.121 365.045C478.269 365.387 477.354 365.541 476.438 365.497C475.962 365.474 475.496 365.349 475.07 365.131C474.645 364.914 474.27 364.607 473.97 364.233C473.42 363.491 473.147 362.576 473.201 361.65C473.22 360.807 473.371 359.972 473.648 359.176C474.164 357.7 474.867 356.298 475.741 355.005C477.317 352.672 479.427 350.758 481.893 349.424L482 350.057L469.804 347.709L466.495 347.023C466.103 346.966 465.719 346.863 465.351 346.716C465.747 346.715 466.142 346.751 466.531 346.824L469.857 347.348L482.107 349.388L483.055 349.551L482.214 350.02C479.876 351.338 477.878 353.194 476.385 355.438C475.558 356.679 474.903 358.028 474.435 359.447C474.131 360.12 473.991 360.857 474.029 361.595C474.066 362.334 474.279 363.053 474.65 363.691C475.203 364.208 475.904 364.535 476.652 364.626C477.4 364.716 478.158 364.566 478.817 364.197C480.396 363.502 481.905 362.655 483.323 361.668C486.408 359.689 489.285 357.395 491.907 354.824C493.274 353.609 494.39 352.133 495.191 350.481C495.992 348.829 496.462 347.034 496.575 345.199C496.558 341.74 495.351 338.394 493.159 335.736C491.187 333.302 488.7 331.346 485.88 330.011C483.424 328.819 480.81 327.992 478.119 327.555C474.189 326.973 470.207 326.828 466.245 327.122L462.99 327.321C462.641 327.372 462.286 327.378 461.935 327.339Z" fill="#EB996E"/>
<path d="M508.95 330.084C509.13 330.719 509.232 331.374 509.254 332.034C509.43 333.834 509.502 335.643 509.468 337.452C509.48 343.44 507.945 349.328 505.015 354.535C501.439 360.585 495.841 364.485 491.21 365.099C490.287 365.227 489.348 365.129 488.471 364.815C487.593 364.501 486.803 363.979 486.167 363.294C485.835 362.913 485.58 362.472 485.415 361.993C485.342 361.836 485.311 361.661 485.326 361.488C485.634 362.047 486.007 362.569 486.435 363.041C487.066 363.61 487.818 364.027 488.633 364.258C489.448 364.49 490.305 364.531 491.138 364.377C495.394 363.673 500.795 359.826 504.211 354.011C507.052 348.924 508.629 343.217 508.807 337.379C509.039 332.883 508.789 330.084 508.95 330.084Z" fill="#EB996E"/>
<path d="M483.645 381.659C483.538 381.533 484.468 380.72 485.577 379.095C487 377.006 487.885 374.591 488.152 372.07C488.38 369.539 487.967 366.992 486.954 364.666C486.185 362.86 485.433 361.885 485.559 361.795C486.428 362.47 487.111 363.359 487.544 364.377C488.804 366.76 489.34 369.466 489.082 372.156C488.824 374.845 487.785 377.398 486.095 379.492C485.468 380.408 484.627 381.153 483.645 381.659Z" fill="#EB996E"/>
<path d="M466.262 347.456C466.907 348.666 467.109 350.066 466.834 351.411C466.72 352.893 466.293 354.334 465.583 355.637C464.773 357.227 463.75 358.698 462.543 360.007C460.268 362.3 457.529 364.068 454.513 365.19C453.326 365.772 452.07 366.197 450.775 366.454C451.861 365.723 453.025 365.117 454.245 364.648C457.077 363.382 459.658 361.607 461.863 359.411C463.019 358.156 464.016 356.761 464.832 355.257C465.529 354.064 465.991 352.746 466.191 351.375C466.348 350.075 466.372 348.761 466.262 347.456Z" fill="#EB996E"/>
<path d="M542.302 352.765L491.996 380.449C491.996 380.449 518.91 387.185 543.357 413.28C556.646 427.494 567.048 444.2 573.973 462.454L624.046 428.793C624.046 428.793 597.096 367.14 542.302 352.765Z" fill="#455A64"/>
<path d="M500.867 379.42L541.479 355.944H541.604H541.73C548.911 357.896 555.816 360.767 562.277 364.485C569.621 368.776 576.47 373.875 582.7 379.691C589.608 386.088 595.939 393.093 601.62 400.621C607.781 408.649 613.243 417.198 617.948 426.174L618.144 426.553L617.787 426.788L615.158 428.594L576.495 454.689L576.03 454.996L575.833 454.49C570.367 440.83 562.851 428.1 553.55 416.747C546.16 407.849 537.612 400.001 528.138 393.416C521.958 389.085 515.369 385.383 508.467 382.364C506.035 381.316 504.139 380.558 502.834 380.142L501.367 379.637L500.867 379.456L501.385 379.564L502.887 379.998C504.211 380.413 506.124 381.081 508.574 382.075C515.576 384.988 522.264 388.618 528.532 392.91C538.101 399.46 546.736 407.304 554.194 416.224C563.599 427.614 571.2 440.407 576.727 454.147L576.065 453.948L614.711 427.817L617.34 426.012L617.179 426.607C612.504 417.688 607.083 409.188 600.977 401.199C595.339 393.706 589.055 386.732 582.199 380.359C576.004 374.567 569.198 369.48 561.902 365.19C555.511 361.468 548.679 358.58 541.569 356.594H541.819L500.867 379.42Z" fill="white"/>
<path d="M583.219 396.106C581.895 403.926 572.095 408.657 561.312 406.671C550.528 404.684 542.82 396.738 544.144 388.919C545.467 381.1 555.267 376.368 566.051 378.355C576.834 380.341 584.488 388.287 583.219 396.106Z" fill="#FAFAFA"/>
<path d="M559.774 398.616L557.985 400.567L555.983 398.598L557.664 396.793C556.224 395.267 555.18 393.406 554.623 391.375L558.003 389.894C558.454 391.782 559.414 393.507 560.775 394.878C562.152 396.233 563.046 396.341 563.565 395.763C565.353 393.813 557.395 388.702 561.473 384.151C563.261 382.237 565.979 381.894 568.984 384.151L570.772 382.237L572.775 384.206L571.076 386.012C572.204 387.269 573.046 388.761 573.544 390.382L570.218 391.953C569.771 390.399 568.954 388.979 567.839 387.817C566.444 386.463 565.496 386.463 564.96 387.059C563.279 388.865 571.165 394.048 567.124 398.562C565.461 400.422 562.742 400.784 559.774 398.616Z" fill="#455A64"/>
<path d="M512.347 372.901C512.347 372.901 520.878 377.271 512.687 383.736L500.169 378.824L512.347 372.901Z" fill="#FAFAFA"/>
<path d="M535.256 359.899C535.256 359.899 543.482 368.675 551.35 359.537L541.658 356.269L535.256 359.899Z" fill="#FAFAFA"/>
<path d="M571.148 442.752C571.148 442.752 582.217 433.723 588.673 445.93L576.316 454.274L571.148 442.752Z" fill="#FAFAFA"/>
<path d="M611.993 416.441C611.993 416.441 603.999 421.497 609.418 431.917L617.608 426.391L611.993 416.441Z" fill="#FAFAFA"/>
<path d="M582.36 445.732C582.339 446.399 582.124 447.045 581.741 447.589C581.358 448.134 580.825 448.552 580.208 448.792C579.591 449.032 578.918 449.082 578.272 448.938C577.627 448.794 577.038 448.46 576.579 447.98C576.121 447.499 575.812 446.892 575.693 446.236C575.574 445.579 575.649 444.902 575.909 444.288C576.169 443.674 576.603 443.151 577.155 442.785C577.708 442.419 578.355 442.225 579.016 442.228C579.464 442.235 579.906 442.332 580.317 442.512C580.727 442.692 581.099 442.952 581.41 443.278C581.72 443.604 581.964 443.988 582.128 444.409C582.291 444.83 582.37 445.28 582.36 445.732Z" fill="#455A64"/>
<path d="M615.909 424.188C615.885 424.85 615.668 425.49 615.286 426.028C614.904 426.567 614.373 426.98 613.761 427.216C613.148 427.452 612.48 427.501 611.839 427.357C611.199 427.213 610.615 426.882 610.16 426.405C609.705 425.928 609.398 425.326 609.279 424.675C609.16 424.024 609.233 423.351 609.489 422.741C609.746 422.132 610.174 421.612 610.721 421.246C611.268 420.88 611.909 420.685 612.565 420.684C613.013 420.691 613.455 420.788 613.866 420.968C614.276 421.148 614.648 421.408 614.959 421.734C615.269 422.059 615.513 422.444 615.677 422.865C615.84 423.286 615.919 423.736 615.909 424.188Z" fill="#455A64"/>
<path d="M546.808 359.555C546.808 360.801 545.02 361.813 542.963 361.813C540.907 361.813 539.136 360.801 539.136 359.555C539.136 358.309 540.925 357.298 542.981 357.298C545.038 357.298 546.808 358.291 546.808 359.555Z" fill="#455A64"/>
<path d="M514.118 378.282C514.292 379.06 514.223 379.873 513.92 380.609C513.617 381.344 513.095 381.967 512.426 382.39C511.757 382.814 510.974 383.017 510.186 382.971C509.398 382.926 508.644 382.635 508.027 382.138C507.41 381.64 506.961 380.962 506.743 380.196C506.524 379.43 506.547 378.615 506.807 377.862C507.067 377.11 507.553 376.458 508.196 375.996C508.84 375.534 509.609 375.286 510.398 375.285C511.283 375.198 512.166 375.462 512.86 376.022C513.555 376.581 514.006 377.392 514.118 378.282Z" fill="#455A64"/>
<path d="M544.948 376.35C544.948 378.264 542.588 379.817 539.673 379.817C536.758 379.817 534.415 378.318 534.415 376.35C534.415 374.382 536.776 372.883 539.691 372.883C542.606 372.883 544.948 374.544 544.948 376.35Z" fill="#FAFAFA"/>
<path d="M587.314 422.797C584.935 423.899 581.949 422.382 580.768 419.42C580.113 418.162 579.961 416.698 580.343 415.331C580.726 413.963 581.615 412.796 582.825 412.07C585.203 410.969 588.19 412.486 589.37 415.465C590.025 416.72 590.176 418.182 589.794 419.546C589.411 420.911 588.523 422.075 587.314 422.797Z" fill="#FAFAFA"/>
<path d="M513.099 361.56L533.754 383.574C533.754 383.574 542.016 393.127 547.577 388.612C553.139 384.097 545.324 375.682 543.679 373.226C542.034 370.77 521.79 345.975 521.79 345.975L513.099 361.56Z" fill="#FFBE9D"/>
<path d="M523.685 341.768C523.604 343.071 523.333 344.355 522.88 345.578C522.029 348.593 520.828 351.497 519.304 354.228C517.748 356.977 515.761 359.453 513.42 361.56C512.5 362.483 511.421 363.229 510.237 363.763C511.095 362.812 512.009 361.913 512.973 361.072C515.109 358.909 516.965 356.482 518.499 353.849C522.058 347.456 523.435 341.659 523.685 341.768Z" fill="#EB996E"/>
<path d="M331.585 427.691C331.295 428.042 330.972 428.363 330.619 428.648L327.74 431.249L317.01 440.657C307.907 448.549 295.264 459.402 281.244 471.231C267.223 483.059 254.186 493.732 244.708 501.1C239.987 504.856 236.106 507.8 233.388 509.822L230.241 512.08C229.891 512.364 229.513 512.612 229.114 512.82C229.433 512.501 229.773 512.206 230.133 511.935L233.174 509.515C235.82 507.421 239.629 504.405 244.297 500.594C253.65 492.992 266.454 482.337 280.546 470.508C294.638 458.68 307.264 447.971 316.563 440.152L327.489 430.96L330.494 428.504C330.833 428.2 331.198 427.928 331.585 427.691Z" fill="#EB996E"/>
</svg>
