<svg width="500" height="373" viewBox="0 0 500 373" fill="none" xmlns="http://www.w3.org/2000/svg">
<path d="M250 372.56C357.083 372.56 443.89 367.492 443.89 361.24C443.89 354.988 357.083 349.92 250 349.92C142.918 349.92 56.1101 354.988 56.1101 361.24C56.1101 367.492 142.918 372.56 250 372.56Z" fill="#F5F5F5"/>
<path d="M163.312 145.607C167.465 120.023 150.092 95.9168 124.508 91.764C98.9241 87.6111 74.8177 104.984 70.6649 130.568C66.5121 156.152 83.8853 180.259 109.469 184.411C135.053 188.564 159.159 171.191 163.312 145.607Z" fill="#407BFF"/>
<path opacity="0.7" d="M163.312 145.607C167.465 120.023 150.092 95.9168 124.508 91.764C98.9241 87.6111 74.8177 104.984 70.6649 130.568C66.5121 156.152 83.8853 180.259 109.469 184.411C135.053 188.564 159.159 171.191 163.312 145.607Z" fill="#FAFAFA"/>
<path d="M91.6098 137.29C91.6098 131.39 92.6732 127.26 94.7998 124.9C96.9265 122.54 100.163 121.36 104.51 121.36C106.259 121.308 108.003 121.568 109.66 122.13C110.88 122.568 111.999 123.248 112.95 124.13C113.745 124.89 114.419 125.767 114.95 126.73C115.471 127.741 115.864 128.812 116.12 129.92C116.707 132.292 116.999 134.727 116.99 137.17C116.99 142.797 116.036 146.92 114.13 149.54C112.223 152.16 108.94 153.467 104.28 153.46C102.097 153.553 99.9239 153.124 97.9398 152.21C96.301 151.373 94.919 150.108 93.9398 148.55C93.0762 147.102 92.4832 145.51 92.1898 143.85C91.7747 141.689 91.5804 139.491 91.6098 137.29ZM100.17 137.29C100.17 141.243 100.503 143.943 101.17 145.39C101.394 146.011 101.801 146.55 102.336 146.937C102.871 147.324 103.51 147.541 104.17 147.56C105.021 147.566 105.841 147.235 106.45 146.64C107.19 145.825 107.683 144.815 107.87 143.73C108.228 141.68 108.379 139.6 108.32 137.52C108.32 133.387 107.987 130.613 107.32 129.2C107.072 128.57 106.64 128.029 106.079 127.649C105.519 127.269 104.857 127.067 104.18 127.07C103.499 127.059 102.832 127.264 102.275 127.656C101.718 128.047 101.3 128.606 101.08 129.25C100.473 130.71 100.17 133.4 100.17 137.32V137.29Z" fill="#FAFAFA"/>
<path d="M140.11 121.36V153H131.38V132.3C130.096 133.294 128.724 134.168 127.28 134.91C125.669 135.683 123.997 136.318 122.28 136.81V129.74C124.748 129.029 127.066 127.873 129.12 126.33C130.748 125 132.054 123.317 132.94 121.41L140.11 121.36Z" fill="#FAFAFA"/>
<path d="M256.504 148.851C262.458 123.625 246.835 98.3492 221.609 92.3954C196.384 86.4416 171.108 102.065 165.154 127.29C159.2 152.516 174.823 177.792 200.049 183.746C225.274 189.699 250.55 174.076 256.504 148.851Z" fill="#407BFF"/>
<path opacity="0.7" d="M256.504 148.851C262.458 123.625 246.835 98.3492 221.609 92.3954C196.384 86.4416 171.108 102.065 165.154 127.29C159.2 152.516 174.823 177.792 200.049 183.746C225.274 189.699 250.55 174.076 256.504 148.851Z" fill="#FAFAFA"/>
<path d="M183.53 137.29C183.53 131.39 184.593 127.26 186.72 124.9C188.847 122.54 192.083 121.36 196.43 121.36C198.179 121.308 199.923 121.568 201.58 122.13C202.798 122.566 203.915 123.246 204.86 124.13C205.657 124.888 206.332 125.765 206.86 126.73C207.381 127.741 207.774 128.812 208.03 129.92C208.617 132.292 208.909 134.727 208.9 137.17C208.9 142.797 207.947 146.92 206.04 149.54C204.133 152.16 200.85 153.467 196.19 153.46C194.007 153.554 191.834 153.126 189.85 152.21C188.211 151.373 186.829 150.108 185.85 148.55C184.986 147.102 184.393 145.51 184.1 143.85C183.688 141.688 183.497 139.49 183.53 137.29ZM192.09 137.29C192.09 141.243 192.423 143.943 193.09 145.39C193.314 146.011 193.721 146.55 194.256 146.937C194.791 147.324 195.43 147.541 196.09 147.56C196.51 147.564 196.927 147.484 197.317 147.327C197.706 147.169 198.061 146.935 198.36 146.64C199.108 145.83 199.602 144.818 199.78 143.73C200.148 141.682 200.302 139.6 200.24 137.52C200.24 133.387 199.89 130.613 199.19 129.2C198.941 128.568 198.508 128.027 197.945 127.647C197.383 127.266 196.719 127.065 196.04 127.07C195.361 127.061 194.696 127.267 194.141 127.659C193.586 128.05 193.169 128.607 192.95 129.25C192.4 130.72 192.09 133.4 192.09 137.32V137.29Z" fill="#FAFAFA"/>
<path d="M237.73 153H211.83C212.14 150.414 213.07 147.941 214.54 145.79C216.04 143.543 218.86 140.877 223 137.79C224.797 136.581 226.427 135.143 227.85 133.51C228.489 132.723 228.861 131.753 228.91 130.74C228.922 130.288 228.839 129.838 228.667 129.419C228.495 129.001 228.237 128.623 227.91 128.31C227.176 127.652 226.225 127.289 225.24 127.289C224.254 127.289 223.304 127.652 222.57 128.31C221.729 129.357 221.236 130.64 221.16 131.98L212.52 131.28C212.715 129.268 213.354 127.325 214.39 125.59C215.33 124.194 216.658 123.102 218.21 122.45C220.391 121.634 222.713 121.263 225.04 121.36C227.445 121.249 229.849 121.588 232.13 122.36C233.758 122.989 235.155 124.102 236.13 125.55C237.095 126.97 237.601 128.653 237.58 130.37C237.57 132.3 236.993 134.185 235.92 135.79C234.286 138.036 232.252 139.962 229.92 141.47C228.18 142.67 227.02 143.51 226.44 143.99C225.86 144.47 225.17 145.1 224.37 145.88H237.85L237.73 153Z" fill="#FAFAFA"/>
<path d="M303.798 157.656C329.684 156.354 349.613 134.313 348.31 108.428C347.008 82.5415 324.968 62.6125 299.082 63.9147C273.196 65.217 253.267 87.2574 254.569 113.143C255.871 139.029 277.912 158.958 303.798 157.656Z" fill="#407BFF"/>
<path opacity="0.7" d="M303.798 157.656C329.684 156.354 349.613 134.313 348.31 108.428C347.008 82.5415 324.968 62.6125 299.082 63.9147C273.196 65.217 253.267 87.2574 254.569 113.143C255.871 139.029 277.912 158.958 303.798 157.656Z" fill="#FAFAFA"/>
<path d="M277.47 119.82C275.223 114.36 274.633 110.137 275.7 107.15C276.767 104.163 279.31 101.83 283.33 100.15C284.928 99.4354 286.642 99.0154 288.39 98.9101C289.685 98.8459 290.98 99.0537 292.19 99.5201C293.215 99.9174 294.173 100.471 295.03 101.16C295.901 101.894 296.676 102.734 297.34 103.66C298.783 105.63 299.978 107.769 300.9 110.03C303.053 115.237 303.743 119.413 302.97 122.56C302.197 125.707 299.66 128.187 295.36 130C293.374 130.909 291.203 131.34 289.02 131.26C287.197 131.091 285.451 130.442 283.96 129.38C282.615 128.371 281.464 127.128 280.56 125.71C279.332 123.857 278.297 121.883 277.47 119.82ZM285.4 116.58C286.9 120.24 288.26 122.58 289.45 123.67C289.9 124.163 290.488 124.508 291.138 124.66C291.788 124.812 292.468 124.763 293.09 124.52C293.483 124.364 293.84 124.132 294.142 123.837C294.445 123.541 294.685 123.189 294.85 122.8C295.23 121.766 295.299 120.643 295.05 119.57C294.61 117.535 293.96 115.551 293.11 113.65C291.53 109.837 290.15 107.407 288.97 106.36C288.5 105.872 287.892 105.538 287.228 105.402C286.564 105.266 285.874 105.335 285.25 105.6C284.625 105.853 284.095 106.296 283.736 106.867C283.377 107.438 283.207 108.107 283.25 108.78C283.197 110.36 283.913 112.96 285.4 116.58Z" fill="#FAFAFA"/>
<path d="M309.52 99.67L301.42 101.42C301.018 99.0015 301.493 96.5189 302.76 94.42C304.02 92.42 306.28 90.7533 309.54 89.42C313.29 87.87 316.29 87.42 318.54 88.16C319.594 88.4585 320.565 88.9964 321.376 89.7319C322.188 90.4674 322.819 91.3805 323.22 92.4C323.734 93.5943 323.863 94.9189 323.59 96.19C323.245 97.6345 322.559 98.9753 321.59 100.1C322.56 99.9253 323.551 99.8949 324.53 100.01C325.696 100.19 326.794 100.677 327.71 101.42C328.703 102.249 329.464 103.32 329.92 104.53C330.612 106.223 330.843 108.069 330.59 109.88C330.349 111.775 329.54 113.553 328.27 114.98C326.601 116.734 324.547 118.076 322.27 118.9C320.204 119.847 317.979 120.396 315.71 120.52C314.029 120.549 312.368 120.153 310.88 119.37C309.295 118.478 307.907 117.273 306.8 115.83L314.34 111.49C314.987 112.666 315.973 113.621 317.17 114.23C318.113 114.577 319.156 114.538 320.07 114.12C320.579 113.923 321.039 113.617 321.418 113.223C321.796 112.829 322.083 112.357 322.26 111.84C322.647 110.666 322.568 109.388 322.04 108.27C321.644 107.115 320.816 106.158 319.73 105.6C319.221 105.37 318.668 105.252 318.11 105.252C317.551 105.252 316.999 105.37 316.49 105.6C315.629 106.006 314.825 106.524 314.1 107.14L312.16 101.27C312.526 101.182 312.887 101.072 313.24 100.94C314.217 100.562 315.007 99.8148 315.44 98.86C315.651 98.4254 315.767 97.9506 315.779 97.4676C315.791 96.9846 315.699 96.5046 315.51 96.06C315.374 95.6675 315.158 95.3075 314.876 95.0028C314.593 94.6982 314.251 94.4554 313.87 94.29C313.472 94.1367 313.046 94.0665 312.62 94.0837C312.193 94.1009 311.775 94.2051 311.39 94.39C310.963 94.5461 310.572 94.7857 310.239 95.0948C309.906 95.4038 309.637 95.7762 309.45 96.19C309.102 97.3279 309.127 98.547 309.52 99.67Z" fill="#FAFAFA"/>
<path d="M444.213 148.86C450.166 123.635 434.544 98.3587 409.318 92.4049C384.092 86.4511 358.816 102.074 352.863 127.3C346.909 152.525 362.532 177.801 387.757 183.755C412.983 189.709 438.259 174.086 444.213 148.86Z" fill="#407BFF"/>
<path opacity="0.7" d="M444.213 148.86C450.166 123.635 434.544 98.3587 409.318 92.4049C384.092 86.4511 358.816 102.074 352.863 127.3C346.909 152.525 362.532 177.801 387.757 183.755C412.983 189.709 438.259 174.086 444.213 148.86Z" fill="#FAFAFA"/>
<path d="M370.34 137.29C370.34 131.39 371.403 127.26 373.53 124.9C375.656 122.54 378.893 121.36 383.24 121.36C384.989 121.308 386.733 121.568 388.39 122.13C389.608 122.566 390.724 123.246 391.67 124.13C392.467 124.888 393.142 125.765 393.67 126.73C394.191 127.741 394.584 128.812 394.84 129.92C395.427 132.292 395.719 134.727 395.71 137.17C395.71 142.797 394.756 146.92 392.85 149.54C390.943 152.16 387.66 153.473 383 153.48C380.817 153.574 378.643 153.146 376.66 152.23C375.021 151.393 373.639 150.128 372.66 148.57C371.796 147.122 371.203 145.53 370.91 143.87C370.497 141.702 370.306 139.497 370.34 137.29ZM378.9 137.29C378.9 141.243 379.25 143.943 379.95 145.39C380.174 146.011 380.581 146.55 381.116 146.937C381.651 147.324 382.29 147.541 382.95 147.56C383.37 147.564 383.787 147.484 384.177 147.327C384.566 147.169 384.921 146.935 385.22 146.64C385.968 145.83 386.462 144.818 386.64 143.73C387.008 141.682 387.162 139.6 387.1 137.52C387.1 133.387 386.75 130.613 386.05 129.2C385.801 128.568 385.367 128.027 384.805 127.647C384.243 127.266 383.579 127.065 382.9 127.07C382.221 127.061 381.556 127.267 381.001 127.659C380.446 128.05 380.029 128.607 379.81 129.25C379.21 130.71 378.906 133.4 378.9 137.32V137.29Z" fill="#FAFAFA"/>
<path d="M414.11 147.15H398.39V140.05L414.11 121.36H421.63V140.45H425.53V147.15H421.63V153H414.11V147.15ZM414.11 140.45V130.68L405.8 140.45H414.11Z" fill="#FAFAFA"/>
<path d="M398.55 189.35C397.224 189.35 395.952 188.823 395.014 187.886C394.077 186.948 393.55 185.676 393.55 184.35C393.55 183.024 394.077 181.752 395.014 180.814C395.952 179.877 397.224 179.35 398.55 179.35C406.843 179.352 414.951 176.895 421.848 172.288C428.744 167.682 434.12 161.134 437.295 153.473C440.47 145.811 441.302 137.38 439.685 129.246C438.069 121.112 434.076 113.64 428.212 107.775C422.349 101.91 414.878 97.9151 406.744 96.2964C398.61 94.6777 390.178 95.5075 382.516 98.6808C374.854 101.854 368.305 107.228 363.697 114.124C359.089 121.019 356.63 129.127 356.63 137.42C356.63 151.193 351.159 164.401 341.42 174.14C331.681 183.879 318.473 189.35 304.7 189.35C290.927 189.35 277.719 183.879 267.98 174.14C258.241 164.401 252.77 151.193 252.77 137.42C252.77 126.299 248.352 115.634 240.489 107.771C232.625 99.9076 221.96 95.49 210.84 95.49C199.719 95.49 189.054 99.9076 181.191 107.771C173.327 115.634 168.91 126.299 168.91 137.42C168.91 147.692 165.864 157.733 160.157 166.273C154.45 174.813 146.338 181.469 136.848 185.399C127.358 189.329 116.915 190.356 106.841 188.351C96.7674 186.345 87.5145 181.398 80.2527 174.133C72.991 166.868 68.0467 157.614 66.0452 147.539C64.0437 137.464 65.075 127.022 69.0085 117.533C72.942 108.045 79.6011 99.9358 88.1436 94.2321C96.6861 88.5283 106.728 85.4861 117 85.49C118.326 85.49 119.598 86.0168 120.535 86.9545C121.473 87.8922 122 89.1639 122 90.49C122 91.8161 121.473 93.0879 120.535 94.0255C119.598 94.9632 118.326 95.49 117 95.49C108.707 95.49 100.6 97.9492 93.7048 102.556C86.8094 107.164 81.4351 113.712 78.2616 121.374C75.088 129.036 74.2576 137.467 75.8755 145.6C77.4934 153.734 81.4868 161.205 87.3508 167.069C93.2149 172.933 100.686 176.926 108.82 178.544C116.953 180.162 125.384 179.332 133.046 176.158C140.707 172.985 147.256 167.61 151.863 160.715C156.471 153.82 158.93 145.713 158.93 137.42C158.93 123.647 164.401 110.439 174.14 100.7C183.879 90.9612 197.087 85.49 210.86 85.49C224.633 85.49 237.841 90.9612 247.58 100.7C257.319 110.439 262.79 123.647 262.79 137.42C262.79 142.926 263.874 148.379 265.982 153.466C268.089 158.553 271.177 163.175 275.071 167.069C278.964 170.963 283.587 174.051 288.674 176.158C293.761 178.265 299.214 179.35 304.72 179.35C310.226 179.35 315.679 178.265 320.766 176.158C325.853 174.051 330.475 170.963 334.369 167.069C338.262 163.175 341.351 158.553 343.458 153.466C345.565 148.379 346.65 142.926 346.65 137.42C346.65 127.149 349.696 117.108 355.402 108.568C361.109 100.028 369.22 93.3722 378.709 89.442C388.199 85.5118 398.641 84.484 408.715 86.4886C418.788 88.4931 428.041 93.4399 435.303 100.703C442.566 107.967 447.511 117.221 449.513 127.295C451.516 137.369 450.486 147.811 446.554 157.3C442.622 166.788 435.964 174.898 427.423 180.603C418.882 186.308 408.841 189.352 398.57 189.35H398.55Z" fill="#407BFF"/>
<path d="M347.77 172.27L347 171.64C349.278 168.824 351.271 165.789 352.95 162.58L353.84 163.05C352.122 166.313 350.089 169.401 347.77 172.27Z" fill="#407BFF"/>
<path d="M325.17 188.93L324.8 188C331.089 185.494 336.855 181.834 341.8 177.21L342.48 177.94C337.444 182.649 331.574 186.377 325.17 188.93Z" fill="#407BFF"/>
<path d="M190.18 353.74H197.52L198.25 336.72H190.91L190.18 353.74Z" fill="#FFC3BD"/>
<path opacity="0.2" d="M198.25 336.73L197.88 345.5H190.53L190.9 336.73H198.25Z" fill="black"/>
<path d="M136.33 347.97L143.51 349.52L150.72 333.68L143.54 332.12L136.33 347.97Z" fill="#FFC3BD"/>
<path opacity="0.2" d="M143.53 332.13L150.72 333.68L147 341.85L139.82 340.3L143.53 332.13Z" fill="black"/>
<path d="M174.47 114.25C171.95 118.68 169.41 123.25 166.98 127.8C164.55 132.35 162.17 136.93 160.15 141.49C159.62 142.64 159.15 143.77 158.71 144.9C158.71 144.9 158.71 144.97 158.71 145.05C158.674 145.339 158.674 145.631 158.71 145.92C158.893 146.867 159.191 147.787 159.6 148.66C160.064 149.711 160.585 150.736 161.16 151.73C163.761 156.041 166.651 160.17 169.81 164.09L166.03 168.09C161.553 164.792 157.52 160.93 154.03 156.6C152.002 154.152 150.433 151.357 149.4 148.35C149.092 147.376 148.904 146.369 148.84 145.35C148.786 144.745 148.786 144.135 148.84 143.53C148.874 143.194 148.927 142.86 149 142.53C149 142.37 149.08 142.2 149.12 142.03L149.25 141.6C149.69 140.26 150.12 138.9 150.61 137.6C152.528 132.506 154.718 127.519 157.17 122.66C159.59 117.84 162.12 113.18 164.94 108.52L174.47 114.25Z" fill="#FFC3BD"/>
<path d="M168.39 162.81L173.55 164.51L169.21 171.81C169.21 171.81 165.43 170.1 164.67 166.62L168.39 162.81Z" fill="#FFC3BD"/>
<path d="M180.58 167.33L175.56 172.95L169.21 171.81L173.55 164.51L180.58 167.33Z" fill="#FFC3BD"/>
<path d="M199.13 74.36C199.25 74.94 199.65 75.36 200.03 75.27C200.41 75.18 200.62 74.66 200.5 74.08C200.38 73.5 199.98 73.08 199.6 73.17C199.22 73.26 199 73.78 199.13 74.36Z" fill="#263238"/>
<path d="M199.6 75.36C200.653 76.9928 201.925 78.4733 203.38 79.76C203.041 80.1244 202.626 80.4101 202.165 80.5967C201.704 80.7833 201.207 80.8663 200.71 80.84L199.6 75.36Z" fill="#ED847E"/>
<path d="M196.35 71.57C196.261 71.5668 196.175 71.5313 196.11 71.47C196.046 71.4046 196.01 71.3166 196.01 71.225C196.01 71.1334 196.046 71.0455 196.11 70.98C196.48 70.5607 196.947 70.2371 197.469 70.0369C197.991 69.8367 198.554 69.7657 199.11 69.83C199.201 69.8448 199.283 69.8952 199.338 69.9701C199.392 70.0451 199.414 70.1386 199.4 70.23C199.383 70.3203 199.332 70.4006 199.258 70.4545C199.183 70.5084 199.091 70.5318 199 70.52C198.564 70.4783 198.125 70.5409 197.718 70.7026C197.311 70.8643 196.948 71.1205 196.66 71.45C196.624 71.4957 196.576 71.5308 196.521 71.5519C196.467 71.573 196.408 71.5792 196.35 71.57Z" fill="#263238"/>
<path d="M182.59 82.52C183.59 87.9 184.69 97.75 180.93 101.33C180.93 101.33 182.4 106.78 192.39 106.78C203.39 106.78 197.64 101.33 197.64 101.33C191.64 99.9 191.8 95.46 192.84 91.28L182.59 82.52Z" fill="#FFC3BD"/>
<path d="M179.43 102.54C178.63 101.54 177.76 100.29 179.56 99.91C181.56 99.5 192.43 99.07 196.18 99.85C199.93 100.63 198.86 102.76 198.86 102.76L179.43 102.54Z" fill="white"/>
<path d="M146.31 350.52C146.607 350.625 146.921 350.67 147.235 350.653C147.549 350.636 147.857 350.557 148.14 350.42C148.25 350.32 148.325 350.188 148.355 350.042C148.386 349.897 148.37 349.746 148.31 349.61C148.278 349.497 148.221 349.392 148.143 349.304C148.065 349.216 147.968 349.146 147.86 349.1C146.86 348.62 144.59 349.55 144.49 349.59C144.459 349.604 144.433 349.627 144.413 349.655C144.394 349.683 144.382 349.716 144.38 349.75C144.381 349.783 144.391 349.815 144.409 349.843C144.426 349.871 144.451 349.894 144.48 349.91C145.067 350.177 145.68 350.382 146.31 350.52ZM147.5 349.34L147.71 349.41C147.773 349.437 147.829 349.479 147.874 349.531C147.919 349.582 147.952 349.644 147.97 349.71C148.07 350.02 147.97 350.12 147.91 350.15C147.52 350.49 146.05 350.15 145.02 349.76C145.806 349.441 146.653 349.298 147.5 349.34Z" fill="#407BFF"/>
<path d="M144.52 349.92H144.6C145.44 349.68 147.21 348.41 147.23 347.58C147.233 347.45 147.191 347.323 147.11 347.221C147.03 347.119 146.917 347.048 146.79 347.02C146.665 346.975 146.531 346.957 146.399 346.967C146.266 346.978 146.137 347.016 146.02 347.08C145.02 347.58 144.42 349.61 144.39 349.7C144.375 349.726 144.367 349.755 144.367 349.785C144.367 349.815 144.375 349.844 144.39 349.87C144.426 349.902 144.472 349.92 144.52 349.92ZM146.6 347.32H146.67C146.89 347.39 146.89 347.5 146.89 347.54C146.89 348.03 145.7 349.02 144.89 349.43C145.121 348.622 145.587 347.901 146.23 347.36C146.346 347.31 146.475 347.296 146.6 347.32Z" fill="#407BFF"/>
<path d="M200.47 354.11C201.42 354.11 202.33 353.98 202.63 353.56C202.708 353.449 202.751 353.316 202.751 353.18C202.751 353.044 202.708 352.911 202.63 352.8C202.569 352.698 202.488 352.609 202.392 352.538C202.296 352.468 202.186 352.417 202.07 352.39C200.85 352.06 198.28 353.52 198.18 353.59C198.147 353.605 198.12 353.631 198.103 353.664C198.087 353.697 198.082 353.734 198.09 353.77C198.097 353.804 198.114 353.836 198.139 353.861C198.164 353.886 198.196 353.903 198.23 353.91C198.97 354.04 199.719 354.107 200.47 354.11ZM201.64 352.69C201.75 352.674 201.861 352.674 201.97 352.69C202.041 352.703 202.108 352.731 202.167 352.772C202.226 352.814 202.275 352.868 202.31 352.93C202.44 353.15 202.39 353.26 202.31 353.32C201.97 353.79 200.11 353.8 198.74 353.61C199.638 353.118 200.623 352.805 201.64 352.69Z" fill="#407BFF"/>
<path d="M198.25 353.91H198.32C199.21 353.51 200.97 351.91 200.83 351.09C200.83 350.89 200.66 350.65 200.19 350.6C200.012 350.58 199.831 350.596 199.659 350.648C199.487 350.699 199.328 350.785 199.19 350.9C198.26 351.67 198.06 353.65 198.05 353.73C198.046 353.761 198.051 353.791 198.063 353.82C198.075 353.848 198.095 353.872 198.12 353.89C198.16 353.912 198.206 353.919 198.25 353.91ZM200.05 350.91H200.15C200.46 350.91 200.48 351.06 200.49 351.1C200.57 351.6 199.38 352.85 198.49 353.39C198.586 352.553 198.935 351.764 199.49 351.13C199.652 351.008 199.847 350.938 200.05 350.93V350.91Z" fill="#407BFF"/>
<path d="M144.2 348.8L136.13 347.06C135.988 347.027 135.839 347.045 135.71 347.111C135.58 347.177 135.477 347.286 135.42 347.42L132.62 353.49C132.552 353.637 132.518 353.799 132.521 353.961C132.525 354.124 132.565 354.283 132.639 354.428C132.714 354.572 132.82 354.698 132.95 354.795C133.08 354.893 133.23 354.959 133.39 354.99C136.22 355.56 137.62 355.69 141.17 356.46C143.35 356.93 148.28 358.13 151.29 358.78C154.3 359.43 155.34 356.54 154.17 356C148.9 353.59 146.7 351.47 145.27 349.5C145.01 349.144 144.63 348.895 144.2 348.8Z" fill="#263238"/>
<path d="M197.47 352.89H189.47C189.324 352.891 189.183 352.94 189.068 353.031C188.954 353.122 188.874 353.248 188.84 353.39L187.39 359.92C187.355 360.078 187.357 360.241 187.394 360.398C187.431 360.555 187.504 360.701 187.606 360.826C187.708 360.951 187.837 361.052 187.983 361.12C188.129 361.188 188.289 361.222 188.45 361.22C191.34 361.22 195.53 361.01 199.16 361.01C203.42 361.01 207.09 361.24 212.08 361.24C215.08 361.24 215.93 358.19 214.67 357.91C208.92 356.66 204.23 356.52 199.26 353.46C198.728 353.106 198.108 352.909 197.47 352.89Z" fill="#263238"/>
<path d="M200.11 103.14C205.81 102.55 211.71 101.8 217.42 100.9C223.036 100.105 228.579 98.8679 234 97.2C234.63 96.99 235.23 96.76 235.83 96.52C236.326 96.3207 236.807 96.0868 237.27 95.82C238.37 95.2 239.58 94.45 240.76 93.66C243.14 92.07 245.56 90.39 247.95 88.66L262.46 78.23L266.14 82.34C262.06 86.85 257.81 91.13 253.34 95.26C251.1 97.32 248.82 99.36 246.34 101.32C245.11 102.32 243.88 103.32 242.43 104.23C241.634 104.773 240.803 105.261 239.94 105.69C239.16 106.06 238.38 106.41 237.61 106.69C234.628 107.896 231.568 108.899 228.45 109.69C225.45 110.51 222.38 111.16 219.35 111.74C213.283 112.903 207.157 113.737 201 114.24L200.11 103.14Z" fill="#FFC3BD"/>
<path d="M167.78 103C160.89 104.58 149.33 138.77 149.33 138.77L160.58 142.51C160.58 142.51 172.06 125.51 175.96 117.3C180 108.7 174.82 101.38 167.78 103Z" fill="#263238"/>
<path d="M162.54 140.82C162.54 140.82 151.54 138.72 149.01 137.16C148.13 138.43 147.01 143.06 147.79 144.42C148.57 145.78 158.79 147.76 160.16 146.95C161.53 146.14 162.54 140.82 162.54 140.82Z" fill="#263238"/>
<path opacity="0.2" d="M162.54 140.82C162.54 140.82 151.54 138.72 149.01 137.16C148.13 138.43 147.01 143.06 147.79 144.42C148.57 145.78 158.79 147.76 160.16 146.95C161.53 146.14 162.54 140.82 162.54 140.82Z" fill="#FAFAFA"/>
<path d="M208.94 103.37C208.94 103.37 216.75 112.2 209.37 166.87H170.08C169.81 160.87 173.6 131.41 167.78 102.99C172.123 102.154 176.515 101.599 180.93 101.33C186.495 101.01 192.075 101.01 197.64 101.33C201.454 101.716 205.232 102.398 208.94 103.37Z" fill="#263238"/>
<path d="M195 115.06C202.05 122.33 237.39 107.83 237.39 107.83L231.72 96.92C231.72 96.92 209.62 101.51 200.54 101.33C189.34 101.1 189.67 109.53 195 115.06Z" fill="#263238"/>
<path d="M230 96.7101C230 96.7101 235.63 106.42 236.08 109.33C237.63 109.17 241.83 106.96 242.38 105.5C242.93 104.04 237.71 95.0201 236.19 94.5001C234.67 93.9801 230 96.7101 230 96.7101Z" fill="#263238"/>
<path opacity="0.2" d="M230 96.7101C230 96.7101 235.63 106.42 236.08 109.33C237.63 109.17 241.83 106.96 242.38 105.5C242.93 104.04 237.71 95.0201 236.19 94.5001C234.67 93.9801 230 96.7101 230 96.7101Z" fill="#FAFAFA"/>
<path d="M262.23 78.3301L267.23 72.4401L272.61 78.4401C272.61 78.4401 269.29 84.0101 264.02 83.1301L262.23 78.3301Z" fill="#FFC3BD"/>
<path d="M274.26 69.66L279.11 72.44L272.66 78.41L267.27 72.44L274.26 69.66Z" fill="#FFC3BD"/>
<path d="M179.51 77.06C181.4 84.11 182.15 88.32 186.51 91.25C193.05 95.66 201.19 90.6 201.44 83.14C201.67 76.42 198.55 66.03 190.99 64.61C189.323 64.2833 187.601 64.389 185.987 64.9169C184.373 65.4449 182.921 66.3776 181.77 67.6261C180.619 68.8746 179.807 70.3972 179.411 72.0487C179.015 73.7002 179.049 75.4255 179.51 77.06Z" fill="#FFC3BD"/>
<path d="M194.94 50.28C199.94 60.8 173.99 54.97 173.81 64.52C173.81 64.92 173.81 65.28 173.81 65.63C173.07 64.94 171.58 64.18 169.01 65.22C170.517 65.7892 171.882 66.6798 173.01 67.83C172.01 68.68 170.49 69.13 171.14 73.2C171.45 75.2 173.44 78.2 176.03 80.86C177.16 82.67 180.83 86.78 180.76 87.77C181.321 87.7723 181.877 87.6564 182.39 87.43C182.552 87.8049 182.624 88.2124 182.6 88.62C183.96 88.88 185.03 88.69 185.15 87.75C186.26 87.85 187.06 87.55 187.1 86.66C188.16 86.81 188.89 86.47 188.84 85.33C191.36 83.95 192.22 81.04 192.68 77.79C193.214 73.6776 195.273 69.9158 198.45 67.25C203.54 63.18 205.54 56.76 194.94 50.28Z" fill="#263238"/>
<path d="M189.63 76.69C190.117 78.442 191.172 79.9826 192.63 81.0701C194.55 82.4901 195.97 81.07 195.84 78.93C195.72 76.93 194.57 73.9301 192.46 73.3201C190.35 72.7101 189.08 74.57 189.63 76.69Z" fill="#FFC3BD"/>
<path d="M195.43 166.87C195.43 166.87 187.09 223 182.52 244C177.52 267 150.7 340.88 150.7 340.88L137.55 338.03C137.55 338.03 157.62 268.9 160.48 246.09C163.58 221.34 170.08 166.83 170.08 166.83L195.43 166.87Z" fill="#407BFF"/>
<path opacity="0.5" d="M195.43 166.87C195.43 166.87 187.09 223 182.52 244C177.52 267 150.7 340.88 150.7 340.88L137.55 338.03C137.55 338.03 157.62 268.9 160.48 246.09C163.58 221.34 170.08 166.83 170.08 166.83L195.43 166.87Z" fill="black"/>
<path opacity="0.3" d="M190.16 186.87C180.52 188.76 181.54 224.71 182.7 243.2C185.48 230.13 189.55 204.98 192.33 187.13C191.657 186.799 190.892 186.707 190.16 186.87Z" fill="black"/>
<path d="M209.37 166.87C209.37 166.87 210.37 221.8 209.58 244.2C208.75 267.5 200.58 343.8 200.58 343.8H188.17C188.17 343.8 187.71 268.86 187.17 245.98C186.56 220.98 183.55 166.87 183.55 166.87H209.37Z" fill="#407BFF"/>
<path opacity="0.5" d="M209.37 166.87C209.37 166.87 210.37 221.8 209.58 244.2C208.75 267.5 200.58 343.8 200.58 343.8H188.17C188.17 343.8 187.71 268.86 187.17 245.98C186.56 220.98 183.55 166.87 183.55 166.87H209.37Z" fill="black"/>
<path opacity="0.2" d="M198 334.86C197.983 334.859 197.967 334.854 197.952 334.846C197.937 334.839 197.924 334.828 197.914 334.815C197.904 334.801 197.896 334.786 197.892 334.77C197.888 334.754 197.887 334.737 197.89 334.72C200.08 313.62 205.25 262.54 205.89 244.19C206.56 225.45 205.96 183.51 205.75 171.1C205.75 171.066 205.764 171.033 205.788 171.008C205.813 170.984 205.846 170.97 205.88 170.97C205.912 170.97 205.943 170.983 205.965 171.005C205.988 171.028 206 171.058 206 171.09C206.21 183.5 206.81 225.45 206.14 244.2C205.49 262.56 200.32 313.64 198.14 334.75C198.139 334.767 198.134 334.783 198.126 334.798C198.119 334.813 198.108 334.826 198.095 334.836C198.081 334.847 198.066 334.854 198.05 334.858C198.034 334.862 198.017 334.863 198 334.86Z" fill="#FAFAFA"/>
<path d="M153.85 336.53C153.91 336.53 151.4 341.28 151.4 341.28L136.61 338.08L137.85 333.63L153.85 336.53Z" fill="#263238"/>
<path d="M203 338.84C203.06 338.84 202.3 344.01 202.3 344.01H187.17L186.76 339.4L203 338.84Z" fill="#263238"/>
</svg>
